<svg width="1920" height="1080" version="1.1" xmlns="http://www.w3.org/2000/svg" desc="Created with imagetracer.js version 1.2.6" ><path fill="rgb(0,0,0)" stroke="rgb(0,0,0)" stroke-width="1" opacity="0" d="M 0 0 L 1920 0 L 1920 1080 L 0 1080 L 0 0 Z M 1024 107 L 1022 109 L 998 109 L 996 111 L 985 111 L 982 113 L 974 113 L 973 115 L 963 115 L 962 117 L 956 117 L 954 119 L 949 119 L 947 121 L 940 123 L 936 123 L 936 126 L 928 126 Q 929 130 924 128 L 924 130 L 917 130 Q 918 134 913 132 L 913 134 Q 907 133 906 136 L 903 136 Q 903 139 898 138 L 898 140 Q 895 139 894 142 Q 889 141 891 145 L 887 145 L 887 147 L 883 147 L 883 149 L 879 149 L 879 151 Q 875 150 876 153 L 872 153 L 872 155 L 870 156 L 868 159 Q 865 158 864 161 Q 859 160 861 164 L 857 164 L 857 168 Q 852 166 853 170 L 849 172 L 849 174 Q 845 173 846 176 L 842 176 L 842 180 L 838 180 L 838 183 L 834 185 L 834 187 L 831 187 Q 832 190 829 189 L 827 193 L 823 195 Q 824 199 820 197 L 819 201 L 816 203 Q 818 208 812 206 L 812 210 L 808 210 L 808 216 L 804 218 L 804 221 Q 801 220 802 223 L 794 223 L 793 221 L 787 220 L 785 218 Q 781 219 782 216 Q 778 217 777 214 Q 770 216 771 212 L 764 212 L 763 210 Q 759 211 758 208 L 749 208 L 748 206 Q 741 208 740 204 L 734 204 L 729 201 L 719 201 L 717 199 L 704 199 L 701 197 L 638 197 L 636 199 L 619 199 L 617 201 L 608 201 L 606 204 L 596 204 L 594 206 Q 586 205 587 208 L 579 208 L 577 210 Q 571 208 572 212 L 566 212 Q 564 215 559 214 L 557 216 Q 552 215 553 218 L 550 218 L 544 221 Q 541 220 542 223 L 538 223 L 538 225 L 534 225 Q 535 228 531 227 L 531 229 L 527 229 L 527 231 L 523 231 L 523 233 L 519 233 Q 520 236 516 235 L 516 237 Q 511 236 512 239 L 508 239 L 508 242 L 504 242 Q 505 245 501 244 L 501 246 Q 496 245 497 248 L 493 248 L 493 250 Q 490 249 489 252 L 486 252 L 486 256 Q 481 254 482 258 L 478 260 Q 479 262 475 261 L 474 264 Q 475 267 471 265 L 471 267 L 467 267 L 467 271 L 463 271 L 463 275 L 459 277 Q 460 280 456 278 L 456 282 L 452 282 L 452 286 L 448 286 L 448 290 L 444 290 L 444 294 L 441 294 Q 442 298 440 299 Q 435 298 437 303 L 433 303 L 433 309 L 429 311 L 429 313 Q 425 312 426 315 L 409 315 L 403 317 L 375 317 L 370 318 L 368 320 L 354 320 L 352 322 L 342 322 L 340 324 L 333 324 L 332 326 L 324 326 L 322 328 L 315 328 L 314 330 L 308 330 L 306 332 L 296 334 L 291 337 L 288 337 Q 288 340 283 339 L 283 341 L 276 341 Q 277 345 272 343 L 272 345 L 268 345 L 268 347 L 261 347 Q 262 351 257 349 L 257 351 L 253 351 L 253 353 Q 250 352 249 355 Q 244 354 246 358 L 242 358 L 242 360 L 238 360 L 238 362 L 234 362 Q 235 365 231 364 L 231 366 L 227 366 Q 228 369 225 368 L 223 371 L 219 374 Q 214 373 216 377 L 212 377 L 212 379 L 208 381 L 208 383 L 204 383 Q 205 386 201 385 L 201 389 Q 196 387 197 391 L 193 393 L 193 396 Q 188 394 189 398 L 186 400 Q 187 404 182 402 L 182 406 L 180 406 L 178 410 L 174 413 Q 175 417 171 415 L 171 419 L 167 419 L 167 425 L 163 425 L 163 430 L 160 430 L 159 433 Q 161 438 156 436 L 156 442 L 152 442 L 152 449 L 148 451 L 148 457 L 145 457 Q 143 459 144 466 L 143 467 L 141 468 L 141 476 L 140 476 L 137 479 L 137 493 L 133 496 L 133 550 L 135 551 L 137 552 L 137 568 L 141 568 L 141 578 L 144 579 L 145 586 Q 144 588 148 587 L 148 594 L 150 595 L 152 595 L 152 602 L 156 602 L 156 608 L 159 608 Q 158 613 162 614 L 163 614 L 163 619 L 167 619 L 167 623 L 171 626 Q 170 631 174 629 Q 173 633 176 634 Q 179 633 178 637 L 182 638 L 184 642 Q 187 641 186 644 L 189 644 L 189 648 L 193 649 L 195 653 Q 198 652 197 655 L 201 655 L 201 659 Q 205 658 204 661 L 208 661 L 208 663 L 212 665 L 214 668 Q 217 667 216 670 L 219 670 L 219 672 L 223 672 L 225 676 Q 228 675 227 678 L 231 678 Q 230 681 234 680 L 234 682 L 238 682 L 238 684 L 242 684 L 242 687 Q 247 685 246 689 Q 249 688 251 691 Q 254 690 253 693 L 257 693 L 257 695 Q 262 694 265 697 L 268 697 Q 267 700 272 699 L 272 701 L 276 701 L 276 703 L 283 703 L 283 705 L 291 708 L 294 708 L 296 710 Q 303 709 302 712 Q 306 711 308 714 L 314 714 L 316 716 L 324 716 L 325 718 L 332 718 L 333 720 L 343 720 L 343 722 L 351 722 L 351 725 L 354 725 L 354 749 L 357 754 L 358 755 L 358 771 L 361 772 L 362 774 L 362 784 L 364 785 L 366 786 L 366 794 L 369 794 L 369 802 L 370 803 Q 369 805 372 804 Q 374 806 373 812 L 375 813 L 377 813 L 377 819 L 381 819 L 381 827 L 384 828 L 385 833 Q 384 835 388 834 L 388 838 L 392 838 Q 390 843 394 845 Q 398 844 396 849 L 399 850 L 400 854 Q 399 857 403 855 L 403 859 L 406 860 L 407 860 L 407 864 L 411 864 L 411 868 L 414 868 L 414 872 L 418 872 L 418 876 L 422 876 Q 421 880 424 881 L 426 881 L 426 885 Q 430 884 429 887 L 433 889 Q 432 893 437 891 L 439 895 Q 442 894 441 897 L 446 900 L 448 900 L 451 904 Q 453 903 452 906 L 456 906 L 456 908 L 459 908 L 460 911 Q 459 913 463 912 L 463 914 L 467 914 L 467 916 L 470 917 Q 472 916 471 919 Q 474 918 476 921 Q 479 920 478 923 L 482 923 L 482 925 L 486 925 Q 485 928 489 927 L 489 929 L 493 929 L 493 931 L 497 931 L 497 933 L 501 933 L 501 935 L 505 935 L 505 937 L 509 938 L 512 938 Q 511 941 516 940 L 517 942 L 523 942 Q 522 946 527 944 L 527 946 Q 531 945 533 948 Q 539 946 539 950 L 546 950 L 547 952 L 553 952 L 554 954 L 561 954 L 561 956 Q 564 958 572 957 L 574 959 L 584 959 L 586 961 L 602 961 L 604 963 L 669 963 L 669 961 L 685 961 L 688 959 L 697 959 L 700 957 Q 706 959 708 956 L 710 956 L 711 954 L 718 954 L 718 952 Q 725 954 727 950 L 733 950 Q 732 946 737 948 L 737 946 L 744 946 L 744 944 L 750 944 L 757 940 Q 760 941 759 938 L 766 937 Q 768 938 767 935 L 771 935 L 771 933 L 774 933 L 774 931 L 778 931 L 778 929 L 782 929 L 782 927 L 787 927 L 796 922 L 797 919 L 801 918 Q 800 915 804 916 L 804 914 Q 809 913 809 916 L 812 916 L 814 919 Q 817 918 816 921 L 819 921 L 819 923 L 823 923 L 825 927 Q 828 926 827 929 L 831 929 Q 830 932 834 931 L 834 933 L 838 933 L 838 935 L 842 935 L 842 938 Q 847 936 846 940 Q 849 939 851 942 Q 854 941 853 944 L 857 944 L 857 946 Q 861 945 863 948 L 868 948 Q 867 952 872 950 L 872 952 Q 876 951 878 954 Q 884 953 883 956 L 890 959 L 894 959 L 896 961 Q 903 959 902 963 Q 909 961 911 965 Q 918 964 917 967 L 925 967 L 927 969 L 939 969 L 941 971 L 952 971 L 954 973 L 983 973 L 985 975 L 1005 975 L 1007 973 L 1036 973 L 1038 971 L 1050 971 L 1052 969 L 1062 969 L 1062 967 L 1070 967 L 1072 965 Q 1079 967 1078 963 Q 1085 965 1087 961 Q 1094 963 1093 959 L 1099 959 L 1105 956 L 1107 956 L 1108 954 L 1112 954 L 1112 952 L 1116 952 L 1116 950 Q 1122 952 1124 948 L 1127 948 Q 1126 945 1131 946 Q 1130 943 1134 944 L 1134 942 L 1145 939 L 1146 937 Q 1145 934 1149 935 L 1149 933 L 1153 933 L 1153 931 L 1160 931 L 1161 929 L 1161 931 Q 1167 930 1168 934 L 1168 935 L 1172 935 L 1172 937 L 1180 940 L 1183 940 Q 1182 943 1187 942 L 1188 944 L 1194 944 Q 1193 948 1198 946 L 1198 948 Q 1202 947 1204 950 L 1209 950 L 1211 952 Q 1218 951 1217 954 Q 1225 953 1228 957 L 1236 957 L 1237 959 L 1247 959 L 1247 961 L 1263 961 L 1266 963 L 1329 963 L 1330 961 L 1344 961 L 1344 959 L 1355 959 L 1357 957 L 1365 957 L 1366 956 L 1367 956 L 1368 954 L 1374 954 L 1375 952 L 1382 952 L 1383 950 L 1389 950 Q 1388 946 1393 948 L 1393 946 Q 1400 948 1402 944 Q 1405 945 1404 942 L 1410 942 L 1417 938 Q 1421 939 1419 935 L 1423 935 L 1423 933 L 1427 933 L 1427 931 L 1431 931 Q 1430 928 1434 929 L 1434 927 Q 1439 928 1439 925 L 1442 925 L 1442 923 L 1446 922 Q 1445 919 1448 920 L 1449 917 L 1452 916 Q 1454 917 1453 914 L 1457 914 L 1457 910 L 1461 910 Q 1460 907 1464 908 L 1466 904 Q 1469 905 1468 902 L 1472 901 Q 1471 895 1475 897 L 1479 891 Q 1477 885 1483 887 L 1483 883 L 1487 882 Q 1485 874 1490 876 L 1491 870 L 1493 868 L 1494 868 L 1494 859 L 1498 859 L 1498 851 Q 1503 853 1502 849 L 1514 849 L 1516 851 L 1564 851 L 1566 849 L 1587 849 L 1589 847 L 1599 847 L 1602 845 Q 1611 847 1615 843 L 1622 843 L 1622 841 L 1629 841 L 1630 840 L 1632 840 L 1633 838 L 1640 838 L 1640 836 Q 1644 837 1647 834 Q 1653 836 1653 832 L 1659 832 L 1659 830 Q 1664 831 1664 828 L 1670 828 Q 1669 824 1674 826 L 1674 824 L 1678 824 L 1678 822 L 1682 822 L 1682 820 L 1685 819 L 1689 819 Q 1688 815 1693 817 L 1693 815 L 1697 815 L 1697 813 Q 1700 814 1702 811 Q 1705 812 1704 809 L 1708 809 L 1708 807 L 1711 807 L 1712 804 L 1716 802 Q 1715 798 1719 800 L 1719 798 L 1723 798 L 1723 796 L 1727 795 L 1727 792 L 1731 792 Q 1730 789 1734 790 L 1736 786 Q 1739 787 1738 784 L 1742 783 L 1742 779 L 1746 779 L 1746 775 Q 1750 776 1749 773 L 1753 771 Q 1752 768 1756 769 Q 1758 768 1757 763 L 1760 762 L 1761 762 L 1761 758 L 1764 758 L 1764 754 L 1768 753 Q 1766 747 1771 748 Q 1774 746 1772 741 L 1776 740 L 1776 735 L 1779 735 L 1779 727 L 1782 726 L 1783 726 L 1783 716 L 1787 715 L 1787 702 L 1790 701 L 1791 699 L 1791 644 L 1789 640 L 1787 640 L 1787 630 L 1783 630 L 1783 620 L 1782 618 L 1779 618 L 1779 609 L 1776 609 Q 1778 603 1774 601 L 1772 601 L 1772 596 L 1768 596 L 1768 590 L 1764 590 L 1764 585 L 1763 584 L 1760 579 Q 1755 580 1757 575 L 1753 575 Q 1754 570 1752 569 Q 1747 570 1749 566 L 1746 566 L 1745 562 Q 1740 563 1742 558 L 1738 558 L 1738 554 L 1734 554 L 1730 547 Q 1726 548 1727 545 L 1723 545 L 1723 541 L 1719 541 Q 1720 538 1716 539 L 1715 537 Q 1716 533 1712 535 L 1712 533 L 1708 533 L 1708 531 L 1704 531 L 1704 528 Q 1701 529 1700 526 Q 1696 527 1697 524 L 1695 524 L 1691 520 L 1683 516 L 1678 516 L 1678 514 L 1674 514 L 1674 512 Q 1670 513 1671 511 L 1661 505 L 1657 505 L 1651 501 Q 1643 503 1644 499 Q 1641 500 1640 497 L 1633 497 Q 1634 493 1629 495 L 1629 493 L 1623 493 L 1618 490 L 1612 490 L 1610 488 L 1605 487 Q 1602 488 1603 484 L 1599 484 L 1599 460 L 1598 459 L 1596 458 L 1596 447 L 1595 446 Q 1596 442 1592 444 L 1592 436 L 1588 436 L 1588 427 L 1584 427 L 1584 420 L 1581 419 L 1581 413 L 1579 412 Q 1575 413 1577 408 L 1573 406 Q 1574 401 1572 400 Q 1567 401 1569 396 L 1566 396 L 1565 392 Q 1566 389 1564 390 L 1561 387 Q 1562 384 1558 385 L 1558 381 L 1554 381 L 1554 377 L 1551 377 L 1550 373 L 1547 372 L 1547 370 L 1543 370 L 1543 366 L 1539 366 L 1536 362 L 1536 360 L 1532 360 L 1532 356 L 1528 355 L 1528 353 L 1524 353 L 1524 352 L 1521 350 L 1520 347 Q 1516 348 1517 345 L 1513 345 L 1513 343 L 1511 342 Q 1508 343 1509 339 L 1506 339 L 1506 337 Q 1502 338 1501 334 Q 1497 335 1498 332 L 1494 332 Q 1495 329 1491 330 L 1491 328 L 1487 328 L 1487 326 L 1483 326 L 1483 324 L 1479 324 L 1479 322 L 1477 322 L 1468 317 Q 1463 318 1464 315 L 1453 311 L 1450 311 Q 1450 308 1445 309 L 1445 307 L 1438 307 L 1438 305 Q 1434 306 1433 303 Q 1426 305 1427 301 L 1420 301 L 1419 299 Q 1413 300 1411 296 L 1405 296 L 1402 294 L 1394 294 L 1393 292 Q 1386 294 1383 290 L 1372 290 L 1370 288 L 1356 288 L 1355 286 L 1334 286 L 1333 284 L 1308 284 Q 1308 281 1303 282 L 1303 278 L 1299 278 L 1299 270 L 1296 267 Q 1297 262 1295 261 Q 1296 258 1292 259 Q 1293 254 1291 252 Q 1286 253 1288 248 L 1284 246 L 1283 242 Q 1284 239 1281 240 Q 1282 235 1279 233 L 1277 233 L 1277 229 L 1273 229 L 1273 223 L 1269 223 L 1269 218 L 1266 218 L 1265 214 Q 1266 211 1262 212 L 1261 208 Q 1256 209 1258 204 L 1254 204 L 1254 200 L 1253 200 L 1250 197 Q 1251 194 1247 195 L 1247 193 L 1243 193 L 1243 189 L 1239 189 L 1239 185 L 1236 185 L 1235 183 Q 1236 180 1232 181 L 1232 178 L 1228 178 L 1227 174 Q 1223 175 1224 172 L 1221 172 L 1221 170 L 1217 170 L 1217 166 Q 1212 168 1213 164 L 1211 163 Q 1208 164 1209 161 L 1206 161 L 1204 157 Q 1201 158 1202 155 L 1198 155 L 1198 153 L 1194 153 Q 1195 150 1191 151 L 1191 149 L 1187 149 L 1187 147 L 1183 147 L 1183 145 L 1179 145 L 1179 142 Q 1176 143 1175 140 Q 1171 141 1172 138 L 1168 138 L 1168 136 Q 1164 137 1163 134 L 1157 134 L 1157 132 L 1153 132 L 1153 130 Q 1148 131 1149 128 L 1142 128 Q 1143 124 1138 126 L 1138 124 L 1132 123 L 1130 121 Q 1122 123 1123 119 Q 1116 121 1115 117 Q 1107 118 1108 115 L 1101 115 L 1100 113 L 1089 113 L 1086 111 L 1075 111 L 1074 109 L 1049 109 L 1048 107 L 1024 107 Z " /><path fill="rgb(239,239,239)" stroke="rgb(239,239,239)" stroke-width="1" opacity="0.3058823529411765" d="M 1023.5 107 L 1047.5 107 L 1048.5 109 L 1073.5 109 L 1074.5 111 L 1085.5 111 L 1088.5 113 L 1100 113 L 1100.5 115 L 1107.5 115 Q 1106.6 118.2 1114.5 117 Q 1116.4 120.8 1123 119 Q 1121.9 122.5 1129.5 121 L 1131.5 123 L 1138 124 L 1138 126 Q 1143.2 124.3 1142 128 L 1148.5 128 Q 1147.7 131.3 1153 130 L 1153 132 L 1157 132 L 1157 134 L 1162.5 134 Q 1163.8 137 1168 136 L 1168 138 L 1172 138 Q 1170.8 141 1174.5 140 Q 1175.6 142.8 1179 142 L 1179 145 L 1183 145 L 1183 147 L 1187 147 L 1187 149 L 1191 149 L 1191 151 Q 1195.1 149.7 1194 153 L 1198 153 L 1198 155 L 1202 155 Q 1200.9 157.7 1203.5 157 L 1206 161 L 1209 161 Q 1207.9 163.7 1210.5 163 L 1213 164 Q 1211.8 167.7 1217 166 L 1217 170 L 1221 170 L 1221 172 L 1224 172 Q 1222.8 175 1226.5 174 L 1228 178 L 1232 178 L 1232 181 Q 1235.7 179.5 1235 182.5 L 1236 185 L 1239 185 L 1239 189 L 1243 189 L 1243 193 L 1247 193 L 1247 195 Q 1250.8 193.5 1250 196.5 L 1252.5 200 L 1254 200 L 1254 204 L 1258 204 Q 1255.9 209.2 1260.5 208 L 1262 212 Q 1265.7 210.5 1265 213.5 L 1266 218 L 1269 218 L 1269 223 L 1273 223 L 1273 229 L 1277 229 L 1277 233 L 1278.5 233 Q 1281.8 235 1281 240 Q 1283.7 238.9 1283 241.5 L 1284 246 L 1288 247.5 Q 1285.9 253.3 1290.5 252 Q 1293.5 253.6 1292 259 Q 1295.8 257.5 1295 260.5 Q 1297.2 261.8 1296 266.5 L 1299 269.5 L 1299 278 L 1303 278 L 1303 282 Q 1308.3 280.8 1307.5 284 L 1332.5 284 L 1333.5 286 L 1354.5 286 L 1355.5 288 L 1369.5 288 L 1371.5 290 L 1382.5 290 Q 1385.6 293.6 1393 292 L 1393.5 294 L 1401.5 294 L 1404.5 296 L 1410.5 296 Q 1412.9 299.7 1419 299 L 1419.5 301 L 1426.5 301 Q 1425.5 304.5 1432.5 303 Q 1433.8 306 1438 305 L 1438 307 L 1444.5 307 L 1445 309 Q 1450.3 307.8 1449.5 311 L 1452.5 311 L 1464 315 Q 1462.7 318.3 1467.5 317 L 1476.5 322 L 1479 322 L 1479 324 L 1483 324 L 1483 326 L 1487 326 L 1487 328 L 1491 328 L 1491 330 Q 1495.1 328.7 1494 332 L 1498 332 Q 1496.8 335 1500.5 334 Q 1501.8 337.8 1506 337 L 1506 339 L 1509 339 Q 1507.5 342.7 1510.5 342 L 1513 343 L 1513 345 L 1517 345 Q 1515.8 348 1519.5 347 L 1521 350 L 1524 351.5 L 1524 353 L 1528 353 L 1528 354.5 L 1532 356 L 1532 360 L 1536 360 L 1536 361.5 L 1539 366 L 1543 366 L 1543 370 L 1547 370 L 1547 371.5 L 1550 373 L 1551 377 L 1554 377 L 1554 381 L 1558 381 L 1558 385 Q 1561.7 383.5 1561 386.5 L 1563.5 390 Q 1565.8 389.3 1565 391.5 L 1566 396 L 1569 396 Q 1566.9 401.2 1571.5 400 Q 1574.3 401.4 1573 406 L 1577 407.5 Q 1575.1 412.9 1578.5 412 L 1581 413 L 1581 419 L 1584 419.5 L 1584 427 L 1588 427 L 1588 436 L 1592 436 L 1592 444 Q 1595.8 442.5 1595 445.5 L 1596 446.5 L 1596 457.5 L 1597.5 459 L 1599 459.5 L 1599 483.5 L 1603 484 Q 1601.5 487.7 1604.5 487 L 1609.5 488 L 1611.5 490 L 1617.5 490 L 1622.5 493 L 1629 493 L 1629 495 Q 1634.2 493.3 1633 497 L 1639.5 497 Q 1640.6 499.8 1644 499 Q 1642.9 502.5 1650.5 501 L 1656.5 505 L 1660.5 505 L 1671 510.5 Q 1670.2 513.5 1674 512 L 1674 514 L 1678 514 L 1678 516 L 1682.5 516 L 1690.5 520 L 1694.5 524 L 1697 524 Q 1695.8 527 1699.5 526 Q 1700.6 528.8 1704 528 L 1704 531 L 1708 531 L 1708 533 L 1712 533 L 1712 535 Q 1715.7 533.5 1715 536.5 L 1716 539 Q 1720.1 537.7 1719 541 L 1723 541 L 1723 545 L 1727 545 Q 1725.8 548 1729.5 547 L 1734 554 L 1738 554 L 1738 558 L 1742 558 Q 1739.9 563.2 1744.5 562 L 1746 566 L 1749 566 Q 1747.3 570.1 1751.5 569 Q 1754.3 570.4 1753 575 L 1757 575 Q 1754.9 580.2 1759.5 579 L 1762.5 584 L 1764 584.5 L 1764 590 L 1768 590 L 1768 596 L 1772 596 L 1772 601 L 1773.5 601 Q 1777.5 602.7 1776 609 L 1779 609 L 1779 617.5 L 1781.5 618 L 1783 619.5 L 1783 630 L 1787 630 L 1787 639.5 L 1788.5 640 L 1791 643.5 L 1791 698.5 L 1790 701 L 1787 701.5 L 1787 714.5 L 1783 716 L 1783 725.5 L 1781.5 726 L 1779 727 L 1779 734.5 L 1776 735 L 1776 739.5 L 1772 741 Q 1773.5 746.4 1770.5 748 Q 1765.9 746.6 1768 752.5 L 1764 754 L 1764 758 L 1761 758 L 1761 762 L 1759.5 762 L 1757 763 Q 1758.3 767.6 1755.5 769 Q 1752.2 767.9 1753 770.5 L 1749 773 Q 1750.1 776.3 1746 775 L 1746 779 L 1742 779 L 1742 782.5 L 1738 784 Q 1739.3 787 1735.5 786 L 1734 790 Q 1729.9 788.7 1731 792 L 1727 792 L 1727 794.5 L 1723 796 L 1723 798 L 1719 798 L 1719 800 Q 1715.3 798.5 1716 801.5 L 1712 804 L 1710.5 807 L 1708 807 L 1708 809 L 1704 809 Q 1705.3 812 1701.5 811 Q 1700.4 813.8 1697 813 L 1697 815 L 1693 815 L 1693 817 Q 1687.8 815.3 1689 819 L 1684.5 819 L 1682 820 L 1682 822 L 1678 822 L 1678 824 L 1674 824 L 1674 826 Q 1668.8 824.3 1670 828 L 1663.5 828 Q 1664.3 831.2 1659 830 L 1659 832 L 1652.5 832 Q 1653.5 835.5 1646.5 834 Q 1644.5 836.8 1640 836 L 1640 838 L 1632.5 838 L 1632 840 L 1629.5 840 L 1628.5 841 L 1622 841 L 1621.5 843 L 1614.5 843 Q 1610.5 846.5 1601.5 845 L 1598.5 847 L 1588.5 847 L 1586.5 849 L 1565.5 849 L 1563.5 851 L 1515.5 851 L 1513.5 849 L 1502 849 Q 1503.2 852.7 1498 851 L 1498 859 L 1494 859 L 1494 867.5 L 1492.5 868 L 1491 869.5 L 1490 876 Q 1484.8 874.2 1487 881.5 L 1483 883 L 1483 887 Q 1477.4 884.8 1479 890.5 L 1475 897 Q 1470.5 895.3 1472 900.5 L 1468 902 Q 1469.3 905 1465.5 904 L 1464 908 Q 1459.9 906.7 1461 910 L 1457 910 L 1457 914 L 1453 914 Q 1454.1 916.7 1451.5 916 L 1449 917 L 1447.5 920 Q 1445.3 919.3 1446 921.5 L 1442 923 L 1442 925 L 1438.5 925 Q 1439.3 928.3 1434 927 L 1434 929 Q 1429.9 927.7 1431 931 L 1427 931 L 1427 933 L 1423 933 L 1423 935 L 1419 935 Q 1420.7 939.1 1416.5 938 L 1409.5 942 L 1404 942 Q 1405.3 945 1401.5 944 Q 1399.6 947.8 1393 946 L 1393 948 Q 1387.8 946.3 1389 950 L 1382.5 950 L 1381.5 952 L 1374.5 952 L 1374 954 L 1367.5 954 L 1367 956 L 1365.5 956 L 1364.5 957 L 1356.5 957 L 1354.5 959 L 1344 959 L 1343.5 961 L 1329.5 961 L 1328.5 963 L 1265.5 963 L 1262.5 961 L 1247 961 L 1246.5 959 L 1236.5 959 L 1235.5 957 L 1227.5 957 Q 1224.8 952.5 1217 954 Q 1218.1 950.5 1210.5 952 L 1208.5 950 L 1203.5 950 Q 1202.3 947 1198 948 L 1198 946 Q 1192.8 947.7 1194 944 L 1187.5 944 L 1187 942 Q 1181.7 943.3 1182.5 940 L 1179.5 940 L 1172 937 L 1172 935 L 1168 935 L 1168 933.5 Q 1166.5 929.8 1161 931 L 1160.5 929 L 1160 931 L 1153 931 L 1153 933 L 1149 933 L 1149 935 Q 1145.3 933.5 1146 936.5 L 1145 939 L 1134 942 L 1134 944 Q 1129.9 942.7 1131 946 Q 1125.7 944.8 1126.5 948 L 1123.5 948 Q 1121.8 951.5 1116 950 L 1116 952 L 1112 952 L 1112 954 L 1107.5 954 L 1107 956 L 1104.5 956 L 1098.5 959 L 1093 959 Q 1094.1 962.5 1086.5 961 Q 1084.6 964.8 1078 963 Q 1079.1 966.5 1071.5 965 L 1069.5 967 L 1062 967 L 1061.5 969 L 1051.5 969 L 1049.5 971 L 1037.5 971 L 1035.5 973 L 1006.5 973 L 1004.5 975 L 984.5 975 L 982.5 973 L 953.5 973 L 951.5 971 L 940.5 971 L 938.5 969 L 926.5 969 L 924.5 967 L 917 967 Q 918.1 963.5 910.5 965 Q 908.6 961.3 902 963 Q 903.1 959.5 895.5 961 L 893.5 959 L 889.5 959 L 883 955.5 Q 883.6 952.8 877.5 954 Q 876.3 951 872 952 L 872 950 Q 866.8 951.7 868 948 L 862.5 948 Q 861.3 945 857 946 L 857 944 L 853 944 Q 854.3 941 850.5 942 Q 849.4 939.3 846 940 Q 847.2 936.3 842 938 L 842 935 L 838 935 L 838 933 L 834 933 L 834 931 Q 829.9 932.3 831 929 L 827 929 Q 828.3 926 824.5 927 L 823 923 L 819 923 L 819 921 L 816 921 Q 817.3 918 813.5 919 L 812 916 L 808.5 916 Q 809.3 912.8 804 914 L 804 916 Q 800.2 914.5 801 917.5 L 797 919 L 795.5 922 L 786.5 927 L 782 927 L 782 929 L 778 929 L 778 931 L 774 931 L 774 933 L 771 933 L 771 935 L 767 935 Q 768.1 937.7 765.5 937 L 759 938 Q 760.3 941 756.5 940 L 749.5 944 L 744 944 L 744 946 L 737 946 L 737 948 Q 731.8 946.3 733 950 L 726.5 950 Q 724.6 953.8 718 952 L 718 954 L 710.5 954 L 710 956 L 707.5 956 Q 705.8 958.8 699.5 957 L 696.5 959 L 687.5 959 L 684.5 961 L 669 961 L 668.5 963 L 603.5 963 L 601.5 961 L 585.5 961 L 583.5 959 L 573.5 959 L 571.5 957 Q 564.4 957.7 561 956 L 560.5 954 L 553.5 954 L 552.5 952 L 546.5 952 L 545.5 950 L 538.5 950 Q 539.5 946.5 532.5 948 Q 531.3 945 527 946 L 527 944 Q 521.8 945.7 523 942 L 516.5 942 L 516 940 Q 510.7 941.3 511.5 938 L 508.5 938 L 505 937 L 505 935 L 501 935 L 501 933 L 497 933 L 497 931 L 493 931 L 493 929 L 489 929 L 489 927 Q 484.9 928.3 486 925 L 482 925 L 482 923 L 478 923 Q 479.3 920 475.5 921 Q 474.4 918.2 471 919 Q 472.1 916.3 469.5 917 L 467 916 L 467 914 L 463 914 L 463 912 Q 459.3 913.5 460 910.5 L 459 908 L 456 908 L 456 906 L 452 906 Q 453.1 903.3 450.5 904 L 448 900 L 445.5 900 L 441 897 Q 442.3 894 438.5 895 L 437 891 Q 431.8 893.1 433 888.5 L 429 887 Q 430.1 883.7 426 885 L 426 881 L 423.5 881 Q 421 879.8 422 876 L 418 876 L 418 872 L 414 872 L 414 868 L 411 868 L 411 864 L 407 864 L 407 860 L 405.5 860 L 403 859 L 403 855 Q 399.3 856.5 400 853.5 L 399 850 L 396 848.5 Q 397.7 843.7 393.5 845 Q 390.5 843.4 392 838 L 388 838 L 388 834 Q 384.2 835.5 385 832.5 L 384 828 L 381 826.5 L 381 819 L 377 819 L 377 813 L 374.5 813 L 373 811.5 Q 374.5 805.5 371.5 804 Q 369.3 804.8 370 802.5 L 369 801.5 L 369 794 L 366 794 L 366 785.5 L 363.5 785 L 362 783.5 L 362 773.5 L 360.5 772 L 358 770.5 L 358 754.5 L 356.5 754 L 354 748.5 L 354 725 L 351 725 L 350.5 722 L 343 722 L 342.5 720 L 332.5 720 L 332 718 L 324.5 718 L 323.5 716 L 315.5 716 L 313.5 714 L 307.5 714 Q 306.3 711 302 712 Q 303.1 708.5 295.5 710 L 293.5 708 L 290.5 708 L 283 704.5 L 282.5 703 L 276 703 L 276 701 L 272 701 L 272 699 Q 266.7 700.3 267.5 697 L 264.5 697 Q 262.3 694 257 695 L 257 693 L 253 693 Q 254.3 690 250.5 691 Q 249.4 688.3 246 689 Q 247.2 685.3 242 687 L 242 684 L 238 684 L 238 682 L 234 682 L 234 680 Q 229.9 681.3 231 678 L 227 678 Q 228.3 675 224.5 676 L 223 672 L 219 672 L 219 670 L 216 670 Q 217.3 667 213.5 668 L 212 665 L 208 662.5 L 208 661 L 204 661 Q 205.1 657.7 201 659 L 201 655 L 197 655 Q 198.3 652 194.5 653 L 193 649 L 189 647.5 L 189 644 L 186 644 Q 187.3 641 183.5 642 L 182 638 L 178 636.5 Q 179.3 632.8 175.5 634 Q 173 632.8 174 629 Q 169.5 630.8 171 625.5 L 167 622.5 L 167 619 L 163 619 L 163 614 L 161.5 614 Q 158 612.7 159 608 L 156 608 L 156 602 L 152 602 L 152 595 L 149.5 595 L 148 593.5 L 148 587 Q 144.3 588.5 145 585.5 L 144 579 L 141 577.5 L 141 568 L 137 567.5 L 137 551.5 L 134.5 551 L 133 549.5 L 133 495.5 L 137 493 L 137 478.5 L 139.5 476 L 141 476 L 141 467.5 L 142.5 467 L 144 465.5 Q 143.3 459.4 145 457 L 148 457 L 148 450.5 L 152 449 L 152 442 L 156 442 L 156 436 Q 160.5 437.8 159 432.5 L 160 430 L 163 430 L 163 425 L 167 425 L 167 419 L 171 419 L 171 415 Q 175.1 416.7 174 412.5 L 178 410 L 179.5 406 L 182 406 L 182 402 Q 187.2 404.1 186 399.5 L 189 398 Q 187.8 394.3 193 396 L 193 392.5 L 197 391 Q 195.8 387.3 201 389 L 201 385 Q 205.1 386.3 204 383 L 208 383 L 208 380.5 L 212 379 L 212 377 L 216 377 Q 214.3 372.9 218.5 374 L 223 370.5 L 224.5 368 Q 228.3 369 227 366 L 231 366 L 231 364 Q 235.1 365.3 234 362 L 238 362 L 238 360 L 242 360 L 242 358 L 246 358 Q 244.3 353.9 248.5 355 Q 249.6 352.3 253 353 L 253 351 L 257 351 L 257 349 Q 262.2 350.7 261 347 L 268 347 L 268 345 L 272 345 L 272 343 Q 277.2 344.7 276 341 L 282.5 341 L 283 339 Q 288.3 340.3 287.5 337 L 290.5 337 L 295.5 334 L 305.5 332 L 307.5 330 L 314 330 L 314.5 328 L 321.5 328 L 323.5 326 L 332 326 L 332.5 324 L 339.5 324 L 341.5 322 L 351.5 322 L 353.5 320 L 367.5 320 L 369.5 318 L 374.5 317 L 402.5 317 L 408.5 315 L 426 315 Q 424.9 311.7 429 313 L 429 310.5 L 433 309 L 433 303 L 437 303 Q 434.9 297.8 439.5 299 Q 442 297.8 441 294 L 444 294 L 444 290 L 448 290 L 448 286 L 452 286 L 452 282 L 456 282 L 456 278 Q 459.7 279.5 459 276.5 L 463 275 L 463 271 L 467 271 L 467 267 L 471 267 L 471 265 Q 474.7 266.5 474 263.5 L 475 261 Q 478.7 262.5 478 259.5 L 482 258 Q 480.8 254.3 486 256 L 486 252 L 488.5 252 Q 489.6 249.3 493 250 L 493 248 L 496.5 248 Q 495.7 244.8 501 246 L 501 244 Q 505.1 245.3 504 242 L 508 242 L 508 239 L 511.5 239 Q 510.7 235.8 516 237 L 516 235 Q 520.1 236.3 519 233 L 523 233 L 523 231 L 527 231 L 527 229 L 531 229 L 531 227 Q 535.1 228.3 534 225 L 538 225 L 538 223 L 542 223 Q 540.9 220.3 543.5 221 L 549.5 218 L 553 218 Q 551.7 214.7 556.5 216 L 558.5 214 Q 564.2 215.3 565.5 212 L 572 212 Q 570.6 208.3 576.5 210 L 578.5 208 L 587 208 Q 585.9 204.5 593.5 206 L 595.5 204 L 606 204 L 607.5 201 L 616.5 201 L 618.5 199 L 635.5 199 L 637.5 197 L 700.5 197 L 703.5 199 L 716.5 199 L 718.5 201 L 728.5 201 L 733.5 204 L 739.5 204 Q 741.4 207.8 748 206 L 748.5 208 L 757.5 208 Q 758.8 211 763 210 L 763.5 212 L 770.5 212 Q 769.5 215.5 776.5 214 Q 777.8 217 782 216 Q 780.8 219 784.5 218 L 786.5 220 L 793 221 L 793.5 223 L 802 223 Q 801 220 804 221 L 804 217.5 L 808 216 L 808 210 L 812 210 L 812 206 Q 817.6 208.2 816 202.5 L 819 201 L 820 197 Q 824.1 198.7 823 194.5 L 827 193 L 828.5 189 Q 832.3 190 831 187 L 834 187 L 834 184.5 L 838 183 L 838 180 L 842 180 L 842 176 L 846 176 Q 844.9 172.7 849 174 L 849 171.5 L 853 170 Q 851.8 166.3 857 168 L 857 164 L 861 164 Q 859.3 159.9 863.5 161 Q 864.6 158.3 868 159 L 869.5 156 L 872 154.5 L 872 153 L 876 153 Q 874.9 149.7 879 151 L 879 149 L 883 149 L 883 147 L 887 147 L 887 145 L 891 145 Q 889.3 140.9 893.5 142 Q 894.6 139.3 898 140 L 898 138 Q 903.3 139.2 902.5 136 L 905.5 136 Q 907.2 132.5 913 134 L 913 132 Q 918.2 133.7 917 130 L 924 130 L 924 128 Q 929.2 129.7 928 126 L 935.5 126 L 936 123 L 939.5 123 L 946.5 121 L 948.5 119 L 953.5 119 L 955.5 117 L 962 117 L 962.5 115 L 972.5 115 L 973.5 113 L 981.5 113 L 984.5 111 L 995.5 111 L 997.5 109 L 1021.5 109 L 1023.5 107 Z M 1008 110 L 1004 112 L 991 112 L 988 114 L 980 114 L 977 116 L 970 116 Q 968 119 962 118 L 959 120 L 955 120 L 943 125 L 939 125 L 931 129 L 928 129 L 921 133 L 917 133 L 883 151 L 857 169 L 855 172 L 850 175 L 847 179 L 842 182 L 840 185 L 835 188 L 833 191 L 831 192 L 829 195 L 825 198 Q 826 201 824 200 L 810 215 L 810 218 L 806 224 L 802 226 L 796 226 L 771 215 L 762 213 L 759 211 L 755 211 L 752 209 L 738 207 L 735 205 Q 728 206 725 203 L 717 203 L 712 201 L 700 201 L 691 199 L 681 199 L 680 198 L 659 198 L 658 199 L 656 198 L 638 200 L 637 201 L 625 201 L 621 203 L 612 203 Q 608 206 601 205 L 599 207 L 584 209 L 569 215 L 565 215 L 563 217 L 557 218 L 531 230 L 506 245 L 504 245 L 486 258 Q 483 257 484 260 L 475 267 Q 472 266 473 269 L 471 270 L 469 273 L 460 281 Q 457 280 458 283 L 454 285 L 446 296 L 443 297 L 439 303 L 439 305 L 436 306 L 434 312 Q 431 311 432 314 L 430 316 L 419 319 L 380 319 Q 373 323 361 321 L 358 323 L 349 323 L 346 325 L 339 325 L 336 327 L 329 327 L 327 329 L 314 331 L 302 336 L 298 336 Q 292 341 283 342 L 281 344 L 272 346 L 262 352 L 249 357 L 231 369 Q 228 368 229 371 L 227 371 L 209 385 Q 206 384 207 387 L 201 391 L 199 394 L 197 395 L 194 397 L 192 400 L 190 401 L 188 404 L 186 405 L 184 409 L 180 412 Q 181 414 179 413 L 175 418 Q 172 417 173 421 L 171 422 L 168 427 Q 169 429 167 428 L 161 438 L 158 439 L 157 444 Q 158 446 155 445 L 153 452 Q 154 454 152 453 Q 149 454 150 460 L 146 466 L 146 470 L 143 473 L 143 479 L 139 486 L 139 499 L 136 505 Q 138 511 135 513 L 136 540 L 139 547 L 139 561 L 140 562 Q 139 564 142 563 L 143 573 L 146 577 L 146 579 L 150 585 L 150 590 L 153 591 L 154 597 L 158 601 L 158 604 L 161 605 L 161 609 L 165 613 L 165 615 L 169 617 L 169 620 L 179 631 Q 181 630 180 634 L 183 635 L 184 638 L 187 639 L 188 642 L 192 645 Q 191 647 194 646 L 195 649 L 198 650 Q 200 649 199 652 L 206 656 L 207 659 L 239 681 L 273 698 L 276 698 L 288 704 L 312 711 L 315 713 Q 320 712 322 715 L 328 715 L 331 717 L 338 717 L 340 719 L 348 719 L 355 722 L 357 726 L 357 738 L 360 746 L 360 763 L 364 769 L 364 778 L 368 784 L 368 790 L 371 791 L 372 796 Q 370 800 374 799 L 375 801 Q 374 806 376 808 Q 375 810 378 809 Q 380 810 379 815 L 383 819 Q 382 823 385 824 Q 387 823 386 826 L 386 828 L 390 832 Q 389 836 393 837 L 394 837 L 394 841 L 396 841 Q 399 842 398 846 L 401 847 L 402 850 Q 401 853 404 852 L 408 857 Q 410 856 409 860 L 412 861 L 413 865 L 423 874 Q 426 873 424 877 L 427 878 Q 429 877 428 881 L 431 882 L 432 885 L 446 895 L 447 898 L 457 904 Q 459 903 458 906 L 490 926 L 539 947 L 550 949 L 553 951 L 558 951 L 560 953 L 566 953 L 569 955 L 576 955 L 580 957 L 588 957 L 593 959 L 603 959 L 613 961 L 624 961 L 625 962 L 648 962 L 659 960 L 668 960 L 669 959 L 679 959 Q 683 956 692 957 L 695 955 L 703 955 L 706 953 L 712 953 L 714 951 L 719 951 L 741 943 L 745 943 L 749 940 L 757 938 Q 764 932 775 930 L 790 922 L 802 913 L 812 913 L 846 936 L 872 949 L 876 949 L 894 957 L 910 962 L 914 962 L 917 964 L 922 964 L 925 966 Q 932 965 935 968 L 945 968 L 948 970 L 961 970 L 965 972 L 1025 972 L 1030 970 L 1042 970 L 1045 968 L 1054 968 Q 1056 965 1064 966 L 1067 964 L 1072 964 L 1082 960 L 1095 957 L 1097 955 L 1102 955 L 1104 953 L 1112 951 L 1123 945 L 1130 943 L 1145 934 Q 1148 935 1147 932 L 1150 932 L 1156 928 L 1166 928 L 1187 940 L 1223 953 L 1229 953 L 1232 955 L 1239 955 L 1243 957 Q 1251 956 1255 959 L 1266 959 L 1275 961 L 1283 961 L 1284 962 L 1309 962 L 1319 960 L 1338 959 Q 1342 956 1350 957 L 1354 955 L 1361 955 L 1363 953 Q 1369 954 1372 951 L 1377 951 L 1385 947 L 1390 947 L 1396 943 L 1404 941 Q 1410 936 1420 934 L 1450 915 L 1451 913 L 1457 909 L 1458 907 L 1466 901 Q 1465 898 1468 899 L 1470 896 Q 1469 892 1473 894 L 1473 892 L 1481 883 L 1481 881 L 1484 879 L 1485 874 L 1488 871 L 1489 867 Q 1488 864 1491 865 L 1492 864 Q 1490 857 1493 856 Q 1492 853 1495 854 L 1496 850 L 1502 846 Q 1509 845 1513 848 L 1575 848 L 1580 846 L 1590 846 L 1600 843 L 1607 843 L 1611 841 L 1626 839 L 1629 837 L 1634 837 L 1636 835 L 1641 835 L 1643 833 L 1653 831 L 1655 829 L 1659 829 Q 1665 824 1675 822 L 1716 799 L 1717 796 L 1720 795 Q 1722 796 1721 793 L 1724 793 Q 1728 786 1736 784 L 1736 783 L 1747 772 Q 1746 769 1749 770 L 1751 767 L 1754 765 L 1754 763 Q 1758 760 1759 755 L 1762 754 Q 1761 750 1764 751 Q 1767 750 1766 746 L 1769 744 L 1770 741 Q 1769 737 1772 738 L 1774 733 Q 1773 730 1776 731 Q 1778 729 1777 724 L 1781 720 Q 1779 711 1784 710 L 1785 697 L 1788 692 L 1788 650 L 1785 646 L 1784 636 L 1781 633 L 1781 626 L 1777 621 L 1777 615 L 1773 611 L 1773 607 L 1769 602 Q 1770 598 1768 599 Q 1765 598 1766 595 L 1764 593 Q 1761 592 1762 589 L 1760 587 L 1758 584 L 1755 582 L 1754 579 Q 1755 576 1753 577 L 1750 574 Q 1751 571 1749 572 L 1747 570 L 1745 568 L 1743 566 L 1740 564 L 1738 560 Q 1735 561 1736 559 L 1734 557 L 1732 555 L 1727 550 Q 1724 551 1725 549 L 1715 541 L 1713 538 L 1711 538 L 1704 532 L 1683 519 L 1660 508 L 1643 502 L 1641 500 L 1637 500 Q 1636 497 1632 498 L 1630 496 Q 1624 497 1623 494 L 1618 494 L 1615 492 L 1610 492 L 1599 487 L 1597 486 L 1597 470 L 1593 462 L 1593 451 Q 1588 448 1589 441 L 1586 439 L 1585 433 Q 1586 430 1583 431 L 1582 425 L 1578 421 Q 1580 415 1577 416 L 1574 413 Q 1575 409 1573 410 L 1569 403 Q 1566 404 1567 400 L 1564 398 L 1563 396 Q 1564 392 1562 393 L 1558 388 Q 1555 389 1556 386 L 1554 384 L 1552 382 L 1550 380 L 1548 376 L 1539 369 L 1537 367 L 1510 344 L 1505 342 L 1491 332 L 1466 319 L 1454 315 L 1450 312 L 1441 310 L 1439 308 L 1430 306 L 1428 304 L 1423 304 Q 1421 301 1416 302 L 1414 300 L 1401 298 L 1398 296 L 1390 295 L 1386 293 L 1379 293 L 1375 291 Q 1366 293 1363 289 L 1348 289 L 1345 287 L 1310 286 Q 1308 284 1303 285 L 1299 282 L 1297 281 Q 1299 275 1296 274 Q 1297 271 1294 272 Q 1292 270 1293 265 L 1290 263 L 1289 259 Q 1290 255 1288 256 L 1285 252 Q 1286 249 1284 250 Q 1281 249 1282 246 L 1278 242 Q 1279 237 1277 238 L 1274 235 Q 1275 231 1273 232 L 1270 228 Q 1271 225 1269 226 L 1263 219 L 1263 217 L 1261 215 L 1258 211 Q 1255 212 1256 209 L 1254 207 L 1252 203 L 1250 202 Q 1247 203 1248 199 L 1247 199 L 1244 195 L 1237 190 Q 1238 187 1236 188 L 1233 184 L 1228 180 Q 1225 181 1226 178 L 1224 177 Q 1221 178 1222 175 L 1209 165 Q 1206 166 1207 163 L 1204 162 L 1184 148 L 1158 135 Q 1146 133 1139 127 L 1135 127 L 1123 122 L 1102 116 L 1084 114 L 1080 112 L 1069 112 L 1065 110 L 1008 110 Z " /><path fill="rgb(241,241,241)" stroke="rgb(241,241,241)" stroke-width="1" opacity="0.9450980392156862" d="M 1186.5 150 L 1193 154.5 L 1190.5 153 Q 1186.5 152.5 1186.5 150 Z " /><path fill="rgb(241,241,241)" stroke="rgb(241,241,241)" stroke-width="1" opacity="0.9450980392156862" d="M 1194.5 155 L 1195.5 157 L 1194.5 155 Z " /><path fill="rgb(241,241,241)" stroke="rgb(241,241,241)" stroke-width="1" opacity="0.9450980392156862" d="M 1216.5 171 L 1217.5 173 L 1216.5 171 Z " /><path fill="rgb(241,241,241)" stroke="rgb(241,241,241)" stroke-width="1" opacity="0.9450980392156862" d="M 1223.5 177 L 1226 178 L 1225.5 180 L 1223.5 177 Z " /><path fill="rgb(241,241,241)" stroke="rgb(241,241,241)" stroke-width="1" opacity="0.9450980392156862" d="M 1227.5 180 L 1233 184 L 1235.5 188 Q 1237.8 187.3 1237 189.5 L 1244 195 L 1246.5 199 Q 1248.8 198.3 1248 200.5 L 1227.5 180 Z " /><path fill="rgb(241,241,241)" stroke="rgb(241,241,241)" stroke-width="1" opacity="0.9450980392156862" d="M 1249.5 202 L 1252 203 L 1253.5 207 L 1256 208.5 Q 1254.9 211.8 1257.5 211 L 1260.5 215 L 1263 216.5 L 1263 218.5 L 1268.5 226 Q 1270.8 225.3 1270 227.5 L 1271 229.5 L 1268 227.5 Q 1260.6 214.4 1250 204.5 L 1249.5 202 Z " /><path fill="rgb(241,241,241)" stroke="rgb(241,241,241)" stroke-width="1" opacity="0.9450980392156862" d="M 1272.5 232 Q 1275.1 231.2 1274 234.5 L 1276.5 238 Q 1279.1 237.2 1278 240.5 L 1277 240.5 L 1272.5 232 Z " /><path fill="rgb(241,241,241)" stroke="rgb(241,241,241)" stroke-width="1" opacity="0.9450980392156862" d="M 1278.5 242 Q 1282.5 242.5 1282 247.5 L 1281 247.5 L 1278.5 242 Z " /><path fill="rgb(241,241,241)" stroke="rgb(241,241,241)" stroke-width="1" opacity="0.9450980392156862" d="M 1282.5 249 L 1285 250 L 1287.5 256 Q 1290.1 255.2 1289 258.5 L 1290 263 L 1293 264.5 Q 1292.4 269.9 1294 272 Q 1296.7 270.9 1296 273.5 Q 1298.2 274.8 1297 279.5 L 1296 279.5 L 1291 265.5 L 1282.5 249 Z " /><path fill="rgb(241,241,241)" stroke="rgb(241,241,241)" stroke-width="1" opacity="0.9450980392156862" d="M 1297.5 281 L 1302 284.5 L 1299.5 285 Q 1295.9 283.9 1297.5 281 Z " /><path fill="rgb(241,241,241)" stroke="rgb(241,241,241)" stroke-width="1" opacity="0.9450980392156862" d="M 1490.5 332 L 1491.5 334 L 1490.5 332 Z " /><path fill="rgb(241,241,241)" stroke="rgb(241,241,241)" stroke-width="1" opacity="0.9450980392156862" d="M 1498.5 337 L 1499.5 339 L 1498.5 337 Z " /><path fill="rgb(241,241,241)" stroke="rgb(241,241,241)" stroke-width="1" opacity="0.9450980392156862" d="M 1506.5 342 L 1507.5 344 L 1506.5 342 Z " /><path fill="rgb(241,241,241)" stroke="rgb(241,241,241)" stroke-width="1" opacity="0.9450980392156862" d="M 1509.5 344 L 1515 348.5 L 1513.5 348 L 1509.5 344 Z " /><path fill="rgb(241,241,241)" stroke="rgb(241,241,241)" stroke-width="1" opacity="0.9450980392156862" d="M 1518.5 351 L 1519.5 353 L 1518.5 351 Z " /><path fill="rgb(241,241,241)" stroke="rgb(241,241,241)" stroke-width="1" opacity="0.9450980392156862" d="M 1521.5 353 L 1524.5 357 L 1521.5 353 Z " /><path fill="rgb(241,241,241)" stroke="rgb(241,241,241)" stroke-width="1" opacity="0.9450980392156862" d="M 1528.5 359 L 1530.5 362 L 1528.5 359 Z " /><path fill="rgb(241,241,241)" stroke="rgb(241,241,241)" stroke-width="1" opacity="0.9450980392156862" d="M 1535.5 365 L 1536.5 367 L 1535.5 365 Z " /><path fill="rgb(241,241,241)" stroke="rgb(241,241,241)" stroke-width="1" opacity="0.9450980392156862" d="M 1539.5 369 L 1548 376 L 1547.5 378 L 1539.5 369 Z " /><path fill="rgb(241,241,241)" stroke="rgb(241,241,241)" stroke-width="1" opacity="0.9450980392156862" d="M 1550.5 380 L 1553.5 384 L 1556 385.5 L 1555.5 387 Q 1550.6 384.3 1550.5 380 Z " /><path fill="rgb(241,241,241)" stroke="rgb(241,241,241)" stroke-width="1" opacity="0.9450980392156862" d="M 1556.5 388 L 1559 389.5 L 1561.5 393 Q 1564.1 392.2 1563 395.5 L 1563.5 397 L 1556.5 388 Z " /><path fill="rgb(241,241,241)" stroke="rgb(241,241,241)" stroke-width="1" opacity="0.9450980392156862" d="M 1564.5 398 L 1567 399.5 L 1566.5 402 L 1564.5 398 Z " /><path fill="rgb(241,241,241)" stroke="rgb(241,241,241)" stroke-width="1" opacity="0.9450980392156862" d="M 1568.5 403 Q 1571.5 403.5 1571 407.5 L 1570 407.5 L 1568.5 403 Z " /><path fill="rgb(241,241,241)" stroke="rgb(241,241,241)" stroke-width="1" opacity="0.9450980392156862" d="M 1571.5 409 L 1574 410 L 1573.5 412 L 1571.5 409 Z " /><path fill="rgb(241,241,241)" stroke="rgb(241,241,241)" stroke-width="1" opacity="0.9450980392156862" d="M 1574.5 413 L 1576.5 416 Q 1579.5 415.1 1578 419.5 L 1577 419.5 L 1574 414.5 L 1574.5 413 Z " /><path fill="rgb(241,241,241)" stroke="rgb(241,241,241)" stroke-width="1" opacity="0.9450980392156862" d="M 1578.5 421 Q 1582.7 421.8 1582 427.5 L 1581 427.5 L 1578.5 421 Z " /><path fill="rgb(241,241,241)" stroke="rgb(241,241,241)" stroke-width="1" opacity="0.9450980392156862" d="M 1583 431 Q 1585.7 429.9 1585 432.5 L 1586 437.5 L 1585 437.5 L 1583 431 Z " /><path fill="rgb(241,241,241)" stroke="rgb(241,241,241)" stroke-width="1" opacity="0.9450980392156862" d="M 1586.5 439 L 1589 440.5 Q 1588.4 448.1 1593 450.5 L 1593 461.5 L 1597 469.5 L 1597 485.5 L 1598.5 487 L 1601 488.5 L 1599.5 488 Q 1595.1 489.5 1596 486.5 L 1595 485.5 L 1594 469.5 L 1592 463.5 L 1592 456.5 L 1586.5 439 Z " /><path fill="rgb(241,241,241)" stroke="rgb(241,241,241)" stroke-width="1" opacity="0.9450980392156862" d="M 1689.5 523 L 1690.5 525 L 1689.5 523 Z " /><path fill="rgb(241,241,241)" stroke="rgb(241,241,241)" stroke-width="1" opacity="0.9450980392156862" d="M 1694.5 526 L 1695.5 528 L 1694.5 526 Z " /><path fill="rgb(241,241,241)" stroke="rgb(241,241,241)" stroke-width="1" opacity="0.9450980392156862" d="M 1697.5 528 L 1698.5 530 L 1697.5 528 Z " /><path fill="rgb(241,241,241)" stroke="rgb(241,241,241)" stroke-width="1" opacity="0.9450980392156862" d="M 1703.5 532 L 1704.5 534 L 1703.5 532 Z " /><path fill="rgb(241,241,241)" stroke="rgb(241,241,241)" stroke-width="1" opacity="0.9450980392156862" d="M 1707.5 535 L 1708.5 537 L 1707.5 535 Z " /><path fill="rgb(241,241,241)" stroke="rgb(241,241,241)" stroke-width="1" opacity="0.9450980392156862" d="M 1715.5 541 L 1716.5 543 L 1715.5 541 Z " /><path fill="rgb(241,241,241)" stroke="rgb(241,241,241)" stroke-width="1" opacity="0.9450980392156862" d="M 1719.5 544 L 1725 548.5 L 1723.5 548 L 1719.5 544 Z " /><path fill="rgb(241,241,241)" stroke="rgb(241,241,241)" stroke-width="1" opacity="0.9450980392156862" d="M 1726.5 550 L 1732 554.5 L 1731.5 556 L 1726.5 550 Z " /><path fill="rgb(241,241,241)" stroke="rgb(241,241,241)" stroke-width="1" opacity="0.9450980392156862" d="M 1734.5 557 L 1735.5 559 L 1734.5 557 Z " /><path fill="rgb(241,241,241)" stroke="rgb(241,241,241)" stroke-width="1" opacity="0.9450980392156862" d="M 1737.5 560 L 1739.5 563 L 1737.5 560 Z " /><path fill="rgb(241,241,241)" stroke="rgb(241,241,241)" stroke-width="1" opacity="0.9450980392156862" d="M 1740.5 564 L 1743 565.5 L 1741.5 566 L 1740.5 564 Z " /><path fill="rgb(241,241,241)" stroke="rgb(241,241,241)" stroke-width="1" opacity="0.9450980392156862" d="M 1743.5 567 L 1747 569.5 L 1748.5 572 Q 1750.8 571.3 1750 573.5 L 1752.5 577 Q 1754.8 576.3 1754 578.5 L 1755 580.5 L 1752 578.5 L 1743.5 567 Z " /><path fill="rgb(241,241,241)" stroke="rgb(241,241,241)" stroke-width="1" opacity="0.9450980392156862" d="M 1756.5 582 L 1758 584.5 L 1756 583.5 L 1756.5 582 Z " /><path fill="rgb(241,241,241)" stroke="rgb(241,241,241)" stroke-width="1" opacity="0.9450980392156862" d="M 1758.5 586 L 1762 588.5 L 1761.5 591 L 1758.5 586 Z " /><path fill="rgb(241,241,241)" stroke="rgb(241,241,241)" stroke-width="1" opacity="0.9450980392156862" d="M 1762.5 592 L 1766 594.5 L 1765.5 597 L 1762.5 592 Z " /><path fill="rgb(241,241,241)" stroke="rgb(241,241,241)" stroke-width="1" opacity="0.9450980392156862" d="M 1766.5 598 L 1769 599 Q 1769 604.3 1773 606.5 L 1773 610.5 L 1777 614.5 L 1777 619.5 L 1776 619.5 L 1775 614.5 L 1766.5 598 Z " /><path fill="rgb(241,241,241)" stroke="rgb(241,241,241)" stroke-width="1" opacity="0.9450980392156862" d="M 1778.5 623 Q 1782.3 624.3 1781 630.5 L 1780 630.5 L 1778.5 623 Z " /><path fill="rgb(241,241,241)" stroke="rgb(241,241,241)" stroke-width="1" opacity="0.9450980392156862" d="M 1781.5 633 L 1784 635.5 L 1785 645.5 L 1788 649.5 L 1788 691.5 L 1785 696.5 L 1784 709.5 Q 1779.2 711.3 1781 719.5 L 1777 723.5 Q 1777.6 728.9 1776 731 Q 1773.3 729.9 1774 732.5 L 1771.5 738 Q 1768.9 737.2 1770 740.5 L 1769 744 L 1766 745.5 Q 1766.8 750.3 1763.5 751 Q 1760.9 750.2 1762 753.5 L 1759 755 Q 1758.4 760 1754 762.5 L 1754 765 L 1751 766.5 L 1748.5 770 Q 1746.3 769.3 1747 771.5 L 1736 782.5 L 1736 784 Q 1728.1 786.3 1723.5 793 L 1721 793 Q 1722.1 795.7 1719.5 795 L 1717 796 L 1715.5 799 L 1674.5 822 Q 1664.9 823.9 1658.5 829 L 1654.5 829 L 1652.5 831 L 1642.5 833 L 1640.5 835 L 1635.5 835 L 1633.5 837 L 1628.5 837 L 1625.5 839 L 1610.5 841 L 1606.5 843 L 1599.5 843 L 1589.5 846 L 1579.5 846 L 1574.5 848 L 1512.5 848 Q 1509.2 844.8 1501.5 846 L 1496 849.5 L 1495 854 Q 1492.3 852.9 1493 855.5 Q 1490.3 857.2 1492 863.5 L 1490.5 865 Q 1488.3 864.3 1489 866.5 L 1488 870.5 L 1485 873.5 L 1484 879 L 1481 880.5 L 1481 882.5 L 1473 891.5 L 1473 894 Q 1469.3 892.5 1470 895.5 L 1467.5 899 Q 1465.3 898.3 1466 900.5 L 1458 906.5 L 1456.5 909 L 1451 912.5 L 1449.5 915 L 1419.5 934 Q 1409.9 935.9 1403.5 941 L 1395.5 943 L 1389.5 947 L 1384.5 947 L 1376.5 951 L 1371.5 951 Q 1369.2 954.2 1362.5 953 L 1360.5 955 L 1353.5 955 L 1349.5 957 Q 1341.5 956 1337.5 959 L 1318.5 960 L 1308.5 962 L 1283.5 962 L 1282.5 961 L 1266 959.5 L 1281.5 959 L 1282.5 960 L 1306.5 960 L 1307.5 959 L 1325.5 959 L 1326.5 958 L 1356.5 954 L 1385.5 946 Q 1392 941.5 1401.5 940 Q 1423.3 930.8 1441.5 918 Q 1456.7 907.2 1469 893.5 Q 1479.7 882.2 1487 867.5 L 1495 844 Q 1501 846 1511.5 845 L 1512.5 846 L 1528.5 846 L 1529.5 847 L 1553.5 847 L 1554.5 846 L 1582.5 845 L 1583.5 844 L 1607.5 841 L 1625.5 836 L 1629.5 836 L 1659.5 826 L 1695.5 809 Q 1719.8 795.3 1739 776.5 L 1740.5 774 L 1743 772.5 L 1757 756.5 L 1775 726.5 L 1784 699.5 L 1784 693.5 L 1786 685.5 L 1786 676.5 L 1787 675.5 L 1787 665.5 L 1786 664.5 L 1786 655.5 L 1784 648.5 L 1784 642.5 L 1781.5 633 Z " /><path fill="rgb(241,241,241)" stroke="rgb(241,241,241)" stroke-width="1" opacity="0.9450980392156862" d="M 222.5 669 L 223.5 671 L 222.5 669 Z " /><path fill="rgb(241,241,241)" stroke="rgb(241,241,241)" stroke-width="1" opacity="0.9450980392156862" d="M 236.5 678 L 240 680.5 L 238.5 681 L 236.5 678 Z " /><path fill="rgb(241,241,241)" stroke="rgb(241,241,241)" stroke-width="1" opacity="0.9450980392156862" d="M 241.5 681 L 245 683.5 L 243.5 683 L 241.5 681 Z " /><path fill="rgb(241,241,241)" stroke="rgb(241,241,241)" stroke-width="1" opacity="0.9450980392156862" d="M 1269.5 683 Q 1270.7 685.3 1275.5 684 L 1277 685.5 L 1275.5 689 L 1269 689 L 1269 686.5 L 1268 684.5 L 1269.5 683 Z " /><path fill="rgb(241,241,241)" stroke="rgb(241,241,241)" stroke-width="1" opacity="0.9450980392156862" d="M 268.5 695 L 274 697.5 L 272.5 698 L 268.5 696 L 268.5 695 Z " /><path fill="rgb(241,241,241)" stroke="rgb(241,241,241)" stroke-width="1" opacity="0.9450980392156862" d="M 281.5 700 L 289 703.5 L 287.5 704 L 282.5 702 L 281.5 700 Z " /><path fill="rgb(241,241,241)" stroke="rgb(241,241,241)" stroke-width="1" opacity="0.9450980392156862" d="M 291.5 704 L 301 707.5 L 299.5 708 L 291.5 705 L 291.5 704 Z " /><path fill="rgb(241,241,241)" stroke="rgb(241,241,241)" stroke-width="1" opacity="0.9450980392156862" d="M 305.5 709 L 318 712.5 L 314.5 713 Q 311.5 710 305.5 710 L 305.5 709 Z " /><path fill="rgb(241,241,241)" stroke="rgb(241,241,241)" stroke-width="1" opacity="0.9450980392156862" d="M 319.5 713 L 335 716.5 L 330.5 717 Q 328.2 713.8 321.5 715 L 319.5 713 Z " /><path fill="rgb(241,241,241)" stroke="rgb(241,241,241)" stroke-width="1" opacity="0.9450980392156862" d="M 338.5 717 L 347 718.5 L 339.5 719 L 338.5 717 Z " /><path fill="rgb(241,241,241)" stroke="rgb(241,241,241)" stroke-width="1" opacity="0.9450980392156862" d="M 348.5 719 Q 354 718 355 721.5 L 353.5 722 L 348.5 720 L 348.5 719 Z " /><path fill="rgb(241,241,241)" stroke="rgb(241,241,241)" stroke-width="1" opacity="0.9450980392156862" d="M 432.5 884 L 433.5 886 L 432.5 884 Z " /><path fill="rgb(241,241,241)" stroke="rgb(241,241,241)" stroke-width="1" opacity="0.9450980392156862" d="M 461.5 907 L 462.5 909 L 461.5 907 Z " /><path fill="rgb(241,241,241)" stroke="rgb(241,241,241)" stroke-width="1" opacity="0.9450980392156862" d="M 804.5 909 L 811 912.5 L 801.5 913 L 789.5 922 L 778.5 928 L 762.5 934 L 756.5 938 L 748.5 940 L 744.5 943 L 740.5 943 L 718.5 951 L 713.5 951 L 711.5 953 L 705.5 953 L 702.5 955 L 694.5 955 L 691.5 957 Q 682.9 955.9 678.5 959 L 668.5 959 L 667.5 960 L 658.5 960 L 647.5 962 L 624.5 962 L 623.5 961 L 612.5 961 L 611.5 960 L 603 959.5 L 621.5 959 L 622.5 960 L 646.5 960 L 647.5 959 L 665.5 959 L 686.5 955 L 692.5 955 L 728.5 946 L 764.5 932 L 782.5 923 L 804.5 909 Z " /><path fill="rgb(241,241,241)" stroke="rgb(241,241,241)" stroke-width="1" opacity="0.9450980392156862" d="M 470.5 913 L 471.5 915 L 470.5 913 Z " /><path fill="rgb(241,241,241)" stroke="rgb(241,241,241)" stroke-width="1" opacity="0.9450980392156862" d="M 473.5 915 L 474.5 917 L 473.5 915 Z " /><path fill="rgb(241,241,241)" stroke="rgb(241,241,241)" stroke-width="1" opacity="0.9450980392156862" d="M 476.5 917 L 482 920.5 L 480.5 920 Q 476.5 919.5 476.5 917 Z " /><path fill="rgb(241,241,241)" stroke="rgb(241,241,241)" stroke-width="1" opacity="0.9450980392156862" d="M 483.5 921 L 491 925.5 L 489.5 926 L 484.5 923 L 483.5 921 Z " /><path fill="rgb(241,241,241)" stroke="rgb(241,241,241)" stroke-width="1" opacity="0.9450980392156862" d="M 1156.5 924 L 1163 927.5 L 1155.5 928 L 1149.5 932 L 1147 932 Q 1148.3 935 1144.5 934 L 1139.5 938 L 1122.5 945 L 1116.5 949 L 1108.5 951 L 1101.5 955 L 1096.5 955 L 1094.5 957 L 1081.5 960 L 1071.5 964 Q 1065.5 963 1063.5 966 L 1056.5 966 L 1053.5 968 L 1044.5 968 L 1041.5 970 L 1029.5 970 L 1024.5 972 L 997.5 972 L 997.5 971 L 1014.5 971 L 1015.5 970 L 1042.5 968 L 1067.5 963 L 1078.5 959 L 1082.5 959 L 1119.5 945 Q 1139.7 936.2 1156.5 924 Z " /><path fill="rgb(241,241,241)" stroke="rgb(241,241,241)" stroke-width="1" opacity="0.9450980392156862" d="M 492.5 926 L 499 929.5 L 497.5 930 L 493.5 928 L 492.5 926 Z " /><path fill="rgb(241,241,241)" stroke="rgb(241,241,241)" stroke-width="1" opacity="0.9450980392156862" d="M 841.5 932 L 847 935.5 L 845.5 936 L 841.5 932 Z " /><path fill="rgb(241,241,241)" stroke="rgb(241,241,241)" stroke-width="1" opacity="0.9450980392156862" d="M 513.5 936 L 518 937.5 L 515.5 938 L 513.5 936 Z " /><path fill="rgb(241,241,241)" stroke="rgb(241,241,241)" stroke-width="1" opacity="0.9450980392156862" d="M 526.5 941 L 549 948.5 L 545.5 949 L 528.5 943 L 526.5 941 Z " /><path fill="rgb(241,241,241)" stroke="rgb(241,241,241)" stroke-width="1" opacity="0.9450980392156862" d="M 1197.5 943 L 1200 944.5 L 1198.5 945 L 1197.5 943 Z " /><path fill="rgb(241,241,241)" stroke="rgb(241,241,241)" stroke-width="1" opacity="0.9450980392156862" d="M 866.5 945 L 874 948.5 L 871.5 949 L 867.5 947 L 866.5 945 Z " /><path fill="rgb(241,241,241)" stroke="rgb(241,241,241)" stroke-width="1" opacity="0.9450980392156862" d="M 1202.5 945 L 1213 948.5 L 1209.5 949 L 1202.5 946 L 1202.5 945 Z " /><path fill="rgb(241,241,241)" stroke="rgb(241,241,241)" stroke-width="1" opacity="0.9450980392156862" d="M 550.5 949 L 575 954.5 L 568.5 955 L 565.5 953 L 559.5 953 Q 558.3 949.8 552.5 951 L 550.5 949 Z " /><path fill="rgb(241,241,241)" stroke="rgb(241,241,241)" stroke-width="1" opacity="0.9450980392156862" d="M 1214.5 949 L 1228 952.5 L 1222.5 953 Q 1220.8 950.2 1215.5 951 L 1214.5 949 Z " /><path fill="rgb(241,241,241)" stroke="rgb(241,241,241)" stroke-width="1" opacity="0.9450980392156862" d="M 881.5 951 L 885 952.5 L 882.5 953 L 881.5 951 Z " /><path fill="rgb(241,241,241)" stroke="rgb(241,241,241)" stroke-width="1" opacity="0.9450980392156862" d="M 1229.5 953 L 1237 954.5 L 1231.5 955 L 1229.5 953 Z " /><path fill="rgb(241,241,241)" stroke="rgb(241,241,241)" stroke-width="1" opacity="0.9450980392156862" d="M 576.5 955 L 587 956.5 L 579.5 957 L 576.5 956 L 576.5 955 Z " /><path fill="rgb(241,241,241)" stroke="rgb(241,241,241)" stroke-width="1" opacity="0.9450980392156862" d="M 891.5 955 L 917.5 963 L 922.5 963 L 941 967.5 L 934.5 968 L 931.5 966 L 924.5 966 L 921.5 964 L 916.5 964 L 913.5 962 L 905.5 961 Q 901 957.5 893.5 957 L 891.5 955 Z " /><path fill="rgb(241,241,241)" stroke="rgb(241,241,241)" stroke-width="1" opacity="0.9450980392156862" d="M 1239.5 955 L 1249 956.5 L 1242.5 957 L 1239.5 956 L 1239.5 955 Z " /><path fill="rgb(241,241,241)" stroke="rgb(241,241,241)" stroke-width="1" opacity="0.9450980392156862" d="M 588.5 957 L 602 958.5 L 592.5 959 L 588.5 958 L 588.5 957 Z " /><path fill="rgb(241,241,241)" stroke="rgb(241,241,241)" stroke-width="1" opacity="0.9450980392156862" d="M 1250.5 957 L 1263 958.5 L 1254.5 959 L 1250.5 958 L 1250.5 957 Z " /><path fill="rgb(241,241,241)" stroke="rgb(241,241,241)" stroke-width="1" opacity="0.9450980392156862" d="M 945.5 968 L 960 969.5 L 947.5 970 L 945.5 968 Z " /><path fill="rgb(241,241,241)" stroke="rgb(241,241,241)" stroke-width="1" opacity="0.9450980392156862" d="M 961.5 970 L 989 971.5 L 964.5 972 L 961.5 971 L 961.5 970 Z " /><path fill="rgb(255,255,255)" stroke="rgb(255,255,255)" stroke-width="1" opacity="0.996078431372549" d="M 1007.5 110 L 1064.5 110 L 1068.5 112 L 1079.5 112 L 1083.5 114 L 1101.5 116 L 1122.5 122 L 1134.5 127 L 1138.5 127 L 1175.5 144 L 1198.5 158 Q 1227.2 177.8 1250 203.5 L 1261 217.5 L 1258 218 L 1258 214 L 1254 214 L 1254 210 Q 1249.1 211.6 1251 206 L 1247 206 L 1247 201 L 1243 201 L 1243 197 L 1239 197 Q 1240.1 193.7 1236 195 L 1236 191 L 1232 191 L 1232 187 L 1228 187 L 1228 182 L 1224 182 L 1224 180 Q 1219.9 181.3 1221 178 L 1217 178 L 1217 174 L 1213.5 174 Q 1214.3 170.8 1209 172 L 1209 168 Q 1204.9 169.3 1206 166 L 1202 166 L 1202 163 Q 1196.8 164.7 1198 161 L 1194 161 L 1194 157 Q 1189.9 158.3 1191 155 L 1187 155 L 1187 153 L 1183.5 153 Q 1184.3 149.8 1179 151 L 1179 149 Q 1174.9 150.3 1176 147 L 1172 147 L 1172 144 L 1168 144 L 1168 142 Q 1162.8 143.7 1164 140 L 1157.5 140 Q 1158.3 136.8 1153 138 L 1153 136 L 1149 136 L 1149 134 Q 1144.9 135.3 1146 132 L 1138 132 L 1138 130 Q 1132.7 131.3 1133.5 128 L 1127 128 L 1126.5 126 L 1119 126 L 1119 123 L 1112 123 L 1112 121 Q 1106.7 122.3 1107.5 119 L 1097.5 119 L 1097 117 L 1086.5 117 L 1085.5 115 L 1071.5 115 L 1070.5 113 L 1056.5 113 L 1055.5 111 L 1018 111 L 1017.5 113 L 1003.5 113 L 1002.5 115 L 984.5 115 L 984 117 L 977.5 117 L 976.5 119 L 966.5 119 Q 967.3 122.4 958.5 121 L 957.5 123 L 951 123 L 951 126 L 943.5 126 L 942.5 128 L 936 128 L 936 130 Q 930.8 128.3 932 132 L 924 132 L 924 134 Q 919.9 132.7 921 136 L 917 136 L 917 138 L 913 138 L 913 140 L 906 140 L 906 144 L 898 144 L 898 147 L 894 147 L 894 149 Q 889.9 147.7 891 151 L 887.5 151 Q 888.3 154.3 883 153 L 883 157 L 879 157 L 879 159 Q 874.9 157.7 876 161 L 872.5 161 Q 873.3 164.3 868 163 L 868 166 L 864 166 L 864 170 Q 859.9 168.7 861 172 L 857.5 172 Q 858.3 175.3 853 174 L 853 178 L 849 178 L 849 182 Q 844.5 180.5 846 185 L 842 185 L 842 189 L 838.5 189 Q 839.3 192.3 834 191 L 834 195 Q 829.1 193.4 831 199 L 827 199 L 827 204 L 823 204 L 823 208 L 819 208 Q 820.1 211.3 816 210 L 816 217.5 L 812 218 L 812 225 L 808 225 L 808 227 Q 802.7 225.7 803.5 229 L 793 229 L 793 227 Q 787.8 228.7 789 225 L 782.5 225 Q 783.3 221.8 778 223 L 778 220 L 771 220 L 771 218 Q 765.7 219.3 766.5 216 L 759 216 L 759 214 Q 754.9 215.3 756 212 L 744.5 212 L 743.5 210 Q 735.6 211.2 736.5 208 L 729.5 208 L 728.5 206 L 718.5 206 L 717.5 204 L 699.5 204 L 698.5 201 L 639 201 L 638.5 204 L 617.5 204 L 616.5 206 Q 607.7 204.6 608.5 208 L 598.5 208 L 598 210 L 591.5 210 L 590.5 212 L 579.5 212 Q 580.3 215 576 214 L 576 216 L 568.5 216 L 567.5 218 L 561 218 L 561 220 L 557 220 L 557 223 Q 551.8 221.3 553 225 L 546 225 L 546 227 L 542 227 L 542 229 L 538.5 229 Q 539.3 232.2 534 231 L 534 233 Q 529.9 231.7 531 235 L 527 235 L 527 237 L 523.5 237 Q 524.3 240.3 519 239 L 519 242 Q 514.9 240.7 516 244 L 512 244 L 512 246 L 508.5 246 Q 509.3 249.2 504 248 L 504 250 Q 499.9 248.7 501 252 L 497.5 252 Q 498.3 255.3 493 254 L 493 258 L 489 258 Q 490.5 262.5 486 261 L 486 265 L 482 265 L 482 267 L 478.5 267 Q 479.3 270.3 474 269 L 474 273 Q 469.1 271.4 471 277 L 467.5 277 Q 468.3 280.3 463 279 L 463 284 L 459 284 L 459 288 Q 454.1 286.4 456 292 L 452 292 Q 454 298 448 296 L 448 301 L 444 301 Q 445.9 306.6 441 305 L 441 311 L 437 311 L 437 315 L 433.5 315 Q 434.3 318.3 429 317 L 429 320 L 407.5 320 L 406.5 322 L 369.5 322 L 369 324 L 358.5 324 L 357.5 326 L 343.5 326 L 343 328 L 336.5 328 L 335.5 330 L 324.5 330 L 324 332 L 317.5 332 L 316.5 334 L 309 334 Q 310.1 337.3 306 336 L 306 339 L 298.5 339 L 298 341 L 291.5 341 Q 292.3 344.3 287 343 L 287 345 L 279 345 L 279 347 Q 274.9 345.7 276 349 L 272 349 L 272 351 L 264 351 L 264 353 Q 259.9 351.7 261 355 L 257 355 L 257 358 L 253 358 L 253 360 L 249 360 L 249 362 Q 244.9 360.7 246 364 L 242 364 L 242 366 L 238 366 L 238 368 L 234 368 Q 235.1 371.3 231 370 L 231 374 L 227 374 L 227 377 L 223.5 377 Q 224.3 380.3 219 379 Q 220.1 382.3 216 381 L 216 385 L 212.5 385 Q 213.3 388.3 208 387 L 208 391 L 204 391 Q 205.1 394.3 201 393 L 201 398 L 197.5 398 Q 198.3 401.3 193 400 L 193 404 L 189 404 L 189 408 Q 184.1 406.4 186 412 L 182 412 L 182 417 L 178 417 L 178 421 L 174 421 Q 175.9 426.6 171 425 L 171 431 L 167 431 L 167 438 L 163 438 Q 165 444 159 442 L 159 449.5 L 156 450 L 156 457 L 152 457.5 L 152 467 L 148 467.5 L 148 478 L 144 478.5 L 144 492.5 L 141 493.5 L 141 554 L 144 554 L 144 565.5 L 148 566.5 L 148 578.5 L 152 579 L 152 585 L 156 585 L 156 593.5 L 159 594 L 159 600 L 163 600 L 163 606 L 167 606 L 167 613 L 171 613 L 171 619 Q 175.9 617.4 174 623 L 178 623 L 178 628 Q 184 626 182 632 L 186 632 L 186 636 Q 190.9 634.4 189 640 L 192.5 640 Q 191.7 643.2 197 642 L 197 647 Q 203 645 201 651 Q 205.1 649.7 204 653 L 208 653 L 208 657 L 211.5 657 Q 210.7 660.3 216 659 L 216 663 Q 220.5 661.5 219 666 L 223 666 L 223 668 L 226.5 668 Q 225.7 671.3 231 670 L 231 674 Q 235.1 672.7 234 676 L 238 676 L 238 678 L 241.5 678 Q 240.7 681.3 246 680 L 246 682 Q 250.1 680.7 249 684 L 253 684 L 253 687 Q 258.2 685.3 257 689 L 264 689 L 264 691 L 268 691 L 268 693 L 271.5 693 Q 270.7 696.3 276 695 L 276 697 Q 280.1 695.7 279 699 L 286.5 699 L 287.5 701 L 294 701 Q 292.8 704.7 298 703 L 298 706 L 276.5 699 L 248.5 686 L 207 659 L 205.5 656 L 199 651.5 Q 199.8 649.3 197.5 650 L 192 646 L 190.5 643 L 188 641.5 L 186.5 639 L 184 637.5 L 182.5 635 L 180 633.5 Q 181.1 630.2 178.5 631 L 169 619.5 L 169 617 L 165 614.5 L 165 612.5 L 161 608.5 L 161 605 L 158 603.5 L 158 600.5 L 154 596.5 L 153 591 L 150 589.5 L 150 584.5 L 146 578.5 L 146 576.5 L 143 572.5 L 142 563 Q 139.3 564.1 140 561.5 L 139 560.5 L 139 546.5 L 136 539.5 L 135 512.5 Q 137.8 510.8 136 504.5 L 139 498.5 L 139 485.5 L 143 478.5 L 143 472.5 L 146 469.5 L 146 465.5 L 150 459.5 Q 148.8 454.3 151.5 453 Q 153.8 453.8 153 451.5 L 155 445 Q 157.7 446.1 157 443.5 L 158 439 L 161 437.5 L 166.5 428 Q 168.8 428.8 168 426.5 L 170.5 422 L 173 420.5 Q 171.9 417.2 174.5 418 L 178.5 413 Q 180.8 413.8 180 411.5 L 184 409 L 185.5 405 L 188 403.5 L 189.5 401 L 192 399.5 L 193.5 397 L 196.5 395 L 199 394 L 200.5 391 L 207 386.5 Q 206.3 384.3 208.5 385 L 226.5 371 L 229 371 Q 227.9 368.3 230.5 369 L 248.5 357 L 261.5 352 L 271.5 346 L 280.5 344 L 282.5 342 Q 291.7 340.7 297.5 336 L 301.5 336 L 313.5 331 L 326.5 329 L 328.5 327 L 335.5 327 L 338.5 325 L 345.5 325 L 348.5 323 L 357.5 323 L 360.5 321 Q 372.6 322.6 379.5 319 L 418.5 319 L 429.5 316 L 432 313.5 Q 431.3 311.3 433.5 312 L 436 306 L 439 304.5 L 439 302.5 L 443 297 L 446 295.5 L 454 285 L 458 282.5 Q 457.3 280.3 459.5 281 L 469 272.5 L 470.5 270 L 473 268.5 Q 472.3 266.3 474.5 267 L 484 259.5 Q 483.3 257.3 485.5 258 L 503.5 245 L 505.5 245 L 530.5 230 L 556.5 218 L 562.5 217 L 564.5 215 L 568.5 215 L 583.5 209 L 598.5 207 L 600.5 205 Q 608.2 206.2 611.5 203 L 620.5 203 L 624.5 201 L 636.5 201 L 637.5 200 L 655.5 198 L 657.5 199 L 658.5 198 L 679.5 198 L 680.5 199 L 690.5 199 L 699.5 201 L 711.5 201 L 716.5 203 L 724.5 203 L 728.5 205 L 734.5 205 L 737.5 207 L 751.5 209 L 754.5 211 L 775.5 217 L 798.5 227 L 806 223.5 L 810 217.5 L 810 214.5 L 823.5 200 Q 826.1 200.8 825 197.5 L 829 194.5 L 830.5 192 L 833 190.5 L 834.5 188 L 840 185 L 841.5 182 L 847 179 L 849.5 175 L 855 171.5 L 856.5 169 L 882.5 151 L 916.5 133 L 920.5 133 L 927.5 129 L 930.5 129 L 938.5 125 L 942.5 125 L 954.5 120 L 958.5 120 L 961.5 118 Q 967.5 119 969.5 116 L 976.5 116 L 979.5 114 L 987.5 114 L 990.5 112 L 1003.5 112 L 1007.5 110 Z " /><path fill="rgb(255,255,255)" stroke="rgb(255,255,255)" stroke-width="1" opacity="0.996078431372549" d="M 1262.5 219 Q 1278 237.8 1288 261 L 1284 261 L 1284 254 L 1281 254 L 1281 248 L 1277 248 L 1277 242 L 1273 242 L 1273 235 L 1269 235 Q 1270.9 229.4 1266 231 L 1266 225 L 1262 225 L 1262.5 219 Z " /><path fill="rgb(255,255,255)" stroke="rgb(255,255,255)" stroke-width="1" opacity="0.996078431372549" d="M 1288.5 262 L 1292 268.5 L 1288 269 L 1288.5 262 Z " /><path fill="rgb(255,255,255)" stroke="rgb(255,255,255)" stroke-width="1" opacity="0.996078431372549" d="M 1292.5 270 L 1296 279 L 1292 279 L 1292.5 270 Z " /><path fill="rgb(255,255,255)" stroke="rgb(255,255,255)" stroke-width="1" opacity="0.996078431372549" d="M 1296.5 280 L 1299.5 285 L 1323.5 286 L 1324.5 287 L 1344.5 287 L 1347.5 289 L 1362.5 289 Q 1365.7 292.8 1374.5 291 L 1378.5 293 L 1384.5 293 L 1397.5 296 L 1400.5 298 L 1413.5 300 L 1415.5 302 L 1420.5 302 Q 1421.8 305.3 1427.5 304 L 1429.5 306 L 1449.5 312 L 1453.5 315 L 1460.5 317 L 1486.5 330 L 1508.5 344 Q 1532.2 360.3 1551 381.5 Q 1569 401 1581 426.5 L 1577 427 L 1577 421 L 1573 420.5 L 1573 412 L 1569 412 Q 1570.9 406.4 1566 408 L 1566 402 L 1562 402 L 1562 396 L 1558 396 L 1558 391 L 1554 391 L 1554 387 Q 1549.1 388.6 1551 383 L 1547 383 Q 1549 377 1543 379 L 1543 374 L 1539 374 Q 1540.1 370.7 1536 372 L 1536 368 Q 1530 370 1532 364 L 1528.5 364 Q 1529.3 360.8 1524 362 L 1524 358 Q 1519.5 359.5 1521 355 L 1517 355 L 1517 353 L 1513.5 353 Q 1514.3 349.8 1509 351 L 1509 347 Q 1504.9 348.3 1506 345 L 1502 345 L 1502 343 L 1498 343 L 1498 339 L 1494 339 L 1494 336 Q 1489.9 337.3 1491 334 L 1487 334 L 1487 332 L 1483 332 L 1483 330 L 1479 330 L 1479 328 Q 1474.9 329.3 1476 326 L 1468 326 L 1468 324 L 1464 324 L 1464 322 Q 1459.9 323.3 1461 320 L 1457 320 L 1457 317 L 1449 317 L 1449 315 Q 1444.9 316.3 1446 313 L 1442 313 L 1442 311 L 1434.5 311 Q 1435.4 307.8 1427.5 309 Q 1428.3 305.8 1423 307 L 1423 305 L 1416.5 305 L 1415.5 303 L 1408.5 303 L 1407.5 301 L 1397 301 L 1397 298 Q 1391.7 299.3 1392.5 296 L 1382.5 296 L 1382 294 L 1371.5 294 L 1370.5 292 L 1352.5 292 L 1351.5 290 L 1337.5 290 L 1336.5 288 L 1299.5 288 Q 1300.3 285 1296 286 L 1296.5 280 Z " /><path fill="rgb(255,255,255)" stroke="rgb(255,255,255)" stroke-width="1" opacity="0.996078431372549" d="M 1581.5 428 L 1588 443.5 L 1584 444 L 1584 436 L 1581 435.5 L 1581.5 428 Z " /><path fill="rgb(255,255,255)" stroke="rgb(255,255,255)" stroke-width="1" opacity="0.996078431372549" d="M 1588.5 447 L 1591 455 L 1588 455 L 1588.5 447 Z " /><path fill="rgb(255,255,255)" stroke="rgb(255,255,255)" stroke-width="1" opacity="0.996078431372549" d="M 1592.5 464 L 1595 482 L 1592 481.5 L 1592.5 464 Z " /><path fill="rgb(255,255,255)" stroke="rgb(255,255,255)" stroke-width="1" opacity="0.996078431372549" d="M 1596 488 L 1599.5 488 L 1609.5 492 L 1614.5 492 L 1617.5 494 L 1622.5 494 L 1625.5 496 L 1634.5 498 L 1636.5 500 L 1640.5 500 L 1642.5 502 L 1659.5 508 L 1661.5 510 L 1678.5 517 Q 1713.5 536 1740 563.5 L 1741.5 566 Q 1743.8 565.3 1743 567.5 L 1752 579 L 1749 579 Q 1750.1 575.7 1746 577 L 1746 571 L 1742 571 Q 1743.6 566.1 1738 568 L 1738 562 L 1734 562 Q 1735.1 558.7 1731 560 L 1731 556 L 1727.5 556 Q 1728.3 552.8 1723 554 L 1723 549 L 1719 549 Q 1720.1 545.7 1716 547 L 1716 543 L 1712.5 543 Q 1713.3 539.8 1708 541 L 1708 537 L 1704 537 L 1704 535 Q 1699.9 536.3 1701 533 L 1697.5 533 Q 1698.3 529.8 1693 531 L 1693 528 L 1689 528 L 1689 526 Q 1684.9 527.3 1686 524 L 1682 524 L 1682 522 L 1678.5 522 Q 1679.3 518.8 1674 520 L 1674 518 Q 1669.9 519.3 1671 516 L 1667 516 L 1667 514 L 1663 514 L 1663 512 L 1656 512 L 1656 509 L 1652 509 L 1652 507 Q 1646.8 508.7 1648 505 L 1641.5 505 L 1641 503 Q 1635.7 504.3 1636.5 501 L 1629.5 501 L 1628.5 499 L 1622 499 L 1622 497 Q 1616.7 498.3 1617.5 495 L 1607.5 495 L 1606.5 493 L 1599 493 L 1599 490 Q 1594.9 491.3 1596 488 Z " /><path fill="rgb(255,255,255)" stroke="rgb(255,255,255)" stroke-width="1" opacity="0.996078431372549" d="M 1753.5 580 L 1761 589.5 L 1757 590 Q 1759.4 582.9 1753 585 L 1753.5 580 Z " /><path fill="rgb(255,255,255)" stroke="rgb(255,255,255)" stroke-width="1" opacity="0.996078431372549" d="M 1761.5 591 L 1768 601.5 L 1764 602 L 1764 598 L 1761 597.5 L 1761.5 591 Z " /><path fill="rgb(255,255,255)" stroke="rgb(255,255,255)" stroke-width="1" opacity="0.996078431372549" d="M 1768.5 603 L 1772 608.5 L 1768 609 L 1768.5 603 Z " /><path fill="rgb(255,255,255)" stroke="rgb(255,255,255)" stroke-width="1" opacity="0.996078431372549" d="M 1772.5 611 L 1776 619 L 1772 619 L 1772.5 611 Z " /><path fill="rgb(255,255,255)" stroke="rgb(255,255,255)" stroke-width="1" opacity="0.996078431372549" d="M 1776.5 620 Q 1781.2 627.5 1782 638 L 1779 638 L 1779 630 L 1776 630 L 1776.5 620 Z " /><path fill="rgb(255,255,255)" stroke="rgb(255,255,255)" stroke-width="1" opacity="0.996078431372549" d="M 1783.5 642 L 1786 661 L 1783 660.5 L 1783.5 642 Z " /><path fill="rgb(255,255,255)" stroke="rgb(255,255,255)" stroke-width="1" opacity="0.996078431372549" d="M 1783 680 Q 1788.2 678.2 1786 685.5 L 1783.5 700 L 1783 680 Z " /><path fill="rgb(255,255,255)" stroke="rgb(255,255,255)" stroke-width="1" opacity="0.996078431372549" d="M 1779 703 L 1783 703.5 L 1779.5 714 L 1779 703 Z " /><path fill="rgb(255,255,255)" stroke="rgb(255,255,255)" stroke-width="1" opacity="0.996078431372549" d="M 299.5 706 L 305.5 706 L 306 708 L 308.5 708 L 308.5 709 Q 300.9 709.3 299.5 706 Z " /><path fill="rgb(255,255,255)" stroke="rgb(255,255,255)" stroke-width="1" opacity="0.996078431372549" d="M 312.5 710 Q 318.4 708.3 317 712 L 312.5 711 L 312.5 710 Z " /><path fill="rgb(255,255,255)" stroke="rgb(255,255,255)" stroke-width="1" opacity="0.996078431372549" d="M 318.5 712 Q 324.6 710.8 324 713.5 L 322.5 713 Q 317.5 714 318.5 712 Z " /><path fill="rgb(255,255,255)" stroke="rgb(255,255,255)" stroke-width="1" opacity="0.996078431372549" d="M 328.5 714 L 335.5 714 L 336.5 716 L 343 716 L 343 718 L 328.5 715 L 328.5 714 Z " /><path fill="rgb(255,255,255)" stroke="rgb(255,255,255)" stroke-width="1" opacity="0.996078431372549" d="M 1776 716 L 1779 716.5 L 1776.5 721 L 1776 716 Z " /><path fill="rgb(255,255,255)" stroke="rgb(255,255,255)" stroke-width="1" opacity="0.996078431372549" d="M 347.5 718 L 353.5 718 Q 352.7 721.3 358 720 L 358 722 L 362 722 L 362 755.5 L 366 756.5 L 366 770.5 L 369 771.5 L 369 784 L 373 784 L 373 792 L 377 792 L 377 804.5 L 381 805 L 381 812.5 L 384 813 L 384 819 L 388 819 L 388 826 L 392 826 L 392 832 L 396 832 L 396 838 L 399 838 L 399 843 L 403 843 L 403 849 L 407 849 L 407 853 L 411 853 Q 409.1 858.6 414 857 L 414 864 L 418 864 L 418 868 L 421.5 868 Q 420.7 871.3 426 870 L 426 874 L 429 874 L 429 879 L 433 879 L 433 883 L 436.5 883 Q 435.7 886.3 441 885 L 441 889 Q 445.9 887.4 444 893 L 447.5 893 Q 446.7 896.3 452 895 Q 450.4 899.9 456 898 L 456 902 Q 460.1 900.7 459 904 L 463 904 L 463 906 L 467 906 L 467 910 L 471 910 L 471 912 Q 475.1 910.7 474 914 L 478 914 L 478 917 L 481.5 917 Q 480.7 920.3 486 919 L 486 921 Q 490.1 919.7 489 923 L 493 923 L 493 925 L 496.5 925 Q 495.7 928.3 501 927 L 501 929 Q 505.1 927.7 504 931 L 508 931 L 508 933 L 516 933 L 516 936 Q 519.8 934.5 519 937.5 L 517.5 937 L 501.5 931 L 467.5 912 L 450.5 900 L 428 880.5 Q 429.1 877.2 426.5 878 L 424 877 Q 425.5 873.3 422.5 874 L 413 864.5 L 412 861 L 409 859.5 Q 410.1 856.2 407.5 857 L 403.5 852 Q 400.9 852.8 402 849.5 L 401 847 L 398 845.5 Q 398.5 841.5 395.5 841 L 394 841 L 394 837 L 392.5 837 Q 389.3 836.3 390 831.5 L 386 827.5 L 386 825.5 Q 386.8 823.3 384.5 824 Q 382 823 383 818.5 L 379 814.5 Q 380 810 377.5 809 Q 375.3 809.8 376 807.5 Q 373.5 806 375 800.5 L 373.5 799 Q 370.5 799.9 372 795.5 L 371 791 L 368 789.5 L 368 783.5 L 364 777.5 L 364 768.5 L 360 762.5 L 360 745.5 L 357 737.5 L 357 725.5 L 352.5 719 Q 346.5 720.3 347.5 718 Z " /><path fill="rgb(255,255,255)" stroke="rgb(255,255,255)" stroke-width="1" opacity="0.996078431372549" d="M 1772 727 Q 1774.7 725.9 1774 728.5 L 1772 729.5 L 1772 727 Z " /><path fill="rgb(255,255,255)" stroke="rgb(255,255,255)" stroke-width="1" opacity="0.996078431372549" d="M 1768 735 L 1770 735.5 L 1768.5 738 L 1768 735 Z " /><path fill="rgb(255,255,255)" stroke="rgb(255,255,255)" stroke-width="1" opacity="0.996078431372549" d="M 1764 741 L 1767 741.5 L 1764.5 745 L 1764 741 Z " /><path fill="rgb(255,255,255)" stroke="rgb(255,255,255)" stroke-width="1" opacity="0.996078431372549" d="M 1761 746 Q 1763.7 744.9 1763 747.5 L 1761 748.5 L 1761 746 Z " /><path fill="rgb(255,255,255)" stroke="rgb(255,255,255)" stroke-width="1" opacity="0.996078431372549" d="M 1757 752 Q 1759.7 750.9 1759 753.5 L 1757 754.5 L 1757 752 Z " /><path fill="rgb(255,255,255)" stroke="rgb(255,255,255)" stroke-width="1" opacity="0.996078431372549" d="M 1753 756 L 1757 756.5 L 1753 759.5 L 1753 756 Z " /><path fill="rgb(255,255,255)" stroke="rgb(255,255,255)" stroke-width="1" opacity="0.996078431372549" d="M 1749 763 L 1751 763.5 L 1749 764.5 L 1749 763 Z " /><path fill="rgb(255,255,255)" stroke="rgb(255,255,255)" stroke-width="1" opacity="0.996078431372549" d="M 1727 784 L 1730 784.5 L 1727 786 L 1727 784 Z " /><path fill="rgb(255,255,255)" stroke="rgb(255,255,255)" stroke-width="1" opacity="0.996078431372549" d="M 1723 788 L 1725 788.5 L 1719.5 793 L 1719 790 Q 1724.2 791.7 1723 788 Z " /><path fill="rgb(255,255,255)" stroke="rgb(255,255,255)" stroke-width="1" opacity="0.996078431372549" d="M 1712 796 L 1714 796.5 L 1708 800 L 1708 798 Q 1713.2 799.7 1712 796 Z " /><path fill="rgb(255,255,255)" stroke="rgb(255,255,255)" stroke-width="1" opacity="0.996078431372549" d="M 1704 801 L 1707 801.5 L 1704.5 803 L 1704 801 Z " /><path fill="rgb(255,255,255)" stroke="rgb(255,255,255)" stroke-width="1" opacity="0.996078431372549" d="M 1682 813 L 1686 813.5 L 1671.5 821 L 1671 819 Q 1675.1 820.3 1674 817 L 1678 817 L 1678 815 L 1682 815 L 1682 813 Z " /><path fill="rgb(255,255,255)" stroke="rgb(255,255,255)" stroke-width="1" opacity="0.996078431372549" d="M 1659 824 L 1662 824.5 L 1659.5 826 L 1659 824 Z " /><path fill="rgb(255,255,255)" stroke="rgb(255,255,255)" stroke-width="1" opacity="0.996078431372549" d="M 1648 828 L 1651 828.5 L 1648.5 830 L 1648 828 Z " /><path fill="rgb(255,255,255)" stroke="rgb(255,255,255)" stroke-width="1" opacity="0.996078431372549" d="M 1633 832 L 1639 832.5 L 1629.5 836 L 1629 834 Q 1634.2 835.7 1633 832 Z " /><path fill="rgb(255,255,255)" stroke="rgb(255,255,255)" stroke-width="1" opacity="0.996078431372549" d="M 1618 836 L 1625 836.5 L 1618 838 L 1618 836 Z " /><path fill="rgb(255,255,255)" stroke="rgb(255,255,255)" stroke-width="1" opacity="0.996078431372549" d="M 1611 838 L 1617 838.5 L 1611 840 L 1611 838 Z " /><path fill="rgb(255,255,255)" stroke="rgb(255,255,255)" stroke-width="1" opacity="0.996078431372549" d="M 1599.5 841 L 1602 841.5 L 1599.5 842 L 1599.5 841 Z " /><path fill="rgb(255,255,255)" stroke="rgb(255,255,255)" stroke-width="1" opacity="0.996078431372549" d="M 1512.5 845 L 1521 845.5 L 1512.5 846 L 1512.5 845 Z " /><path fill="rgb(255,255,255)" stroke="rgb(255,255,255)" stroke-width="1" opacity="0.996078431372549" d="M 1554.5 845 L 1572 845.5 L 1554.5 846 L 1554.5 845 Z " /><path fill="rgb(255,255,255)" stroke="rgb(255,255,255)" stroke-width="1" opacity="0.996078431372549" d="M 1491 849 L 1494 849.5 L 1491.5 856 L 1491 849 Z " /><path fill="rgb(255,255,255)" stroke="rgb(255,255,255)" stroke-width="1" opacity="0.996078431372549" d="M 1487 860 L 1490 860.5 L 1487.5 865 L 1487 860 Z " /><path fill="rgb(255,255,255)" stroke="rgb(255,255,255)" stroke-width="1" opacity="0.996078431372549" d="M 1483 868 L 1486 868.5 L 1483.5 873 L 1483 868 Z " /><path fill="rgb(255,255,255)" stroke="rgb(255,255,255)" stroke-width="1" opacity="0.996078431372549" d="M 1479 876 L 1482 876.5 L 1479 878.5 L 1479 876 Z " /><path fill="rgb(255,255,255)" stroke="rgb(255,255,255)" stroke-width="1" opacity="0.996078431372549" d="M 1476 881 Q 1478.7 879.9 1478 882.5 L 1476 883.5 L 1476 881 Z " /><path fill="rgb(255,255,255)" stroke="rgb(255,255,255)" stroke-width="1" opacity="0.996078431372549" d="M 1472 887 L 1474 887.5 L 1472 888.5 L 1472 887 Z " /><path fill="rgb(255,255,255)" stroke="rgb(255,255,255)" stroke-width="1" opacity="0.996078431372549" d="M 1468 891 L 1470 891.5 L 1468.5 894 L 1468 891 Z " /><path fill="rgb(255,255,255)" stroke="rgb(255,255,255)" stroke-width="1" opacity="0.996078431372549" d="M 1464 895 L 1467 895.5 L 1464 897.5 L 1464 895 Z " /><path fill="rgb(255,255,255)" stroke="rgb(255,255,255)" stroke-width="1" opacity="0.996078431372549" d="M 1457 902 L 1460 902.5 L 1457 904.5 L 1457 902 Z " /><path fill="rgb(255,255,255)" stroke="rgb(255,255,255)" stroke-width="1" opacity="0.996078431372549" d="M 1453 906 L 1455 906.5 L 1453 907.5 L 1453 906 Z " /><path fill="rgb(255,255,255)" stroke="rgb(255,255,255)" stroke-width="1" opacity="0.996078431372549" d="M 808.5 910 Q 813.5 909 812.5 912 L 819 912 L 819 917 L 823 917 L 823 919 L 826.5 919 Q 825.7 922.2 831 921 L 831 923 Q 835.1 921.7 834 925 L 838 925 L 838 929 L 846 929 L 846 933 L 849 933 L 849 936 Q 854.2 934.3 853 938 L 861 938 L 861 942 L 868 942 L 868 944 L 872 944 L 872 946 Q 877.2 944.3 876 948 L 882.5 948 Q 881.7 951.3 887 950 L 887 952 L 891 952 L 891 954 L 898 954 L 898 956.5 L 896.5 956 L 887.5 954 L 856.5 941 L 823.5 922 L 808.5 911 L 808.5 910 Z " /><path fill="rgb(255,255,255)" stroke="rgb(255,255,255)" stroke-width="1" opacity="0.996078431372549" d="M 1449 910 L 1451 910.5 L 1449 911.5 L 1449 910 Z " /><path fill="rgb(255,255,255)" stroke="rgb(255,255,255)" stroke-width="1" opacity="0.996078431372549" d="M 1446 912 L 1448 912.5 L 1442.5 917 L 1442 914 Q 1447.2 915.7 1446 912 Z " /><path fill="rgb(255,255,255)" stroke="rgb(255,255,255)" stroke-width="1" opacity="0.996078431372549" d="M 793 914 L 796 914.5 L 793.5 916 L 793 914 Z " /><path fill="rgb(255,255,255)" stroke="rgb(255,255,255)" stroke-width="1" opacity="0.996078431372549" d="M 778 923 L 780 923.5 L 778 924.5 L 778 923 Z " /><path fill="rgb(255,255,255)" stroke="rgb(255,255,255)" stroke-width="1" opacity="0.996078431372549" d="M 774 925 L 777 925.5 L 774.5 927 L 774 925 Z " /><path fill="rgb(255,255,255)" stroke="rgb(255,255,255)" stroke-width="1" opacity="0.996078431372549" d="M 1153 925 L 1155 925.5 L 1153 926.5 L 1153 925 Z " /><path fill="rgb(255,255,255)" stroke="rgb(255,255,255)" stroke-width="1" opacity="0.996078431372549" d="M 1160.5 925 L 1168 925 L 1168 927 L 1171.5 927 Q 1170.7 930.3 1176 929 L 1176 933 L 1183 933 L 1183 936 L 1187 936 L 1187 938 Q 1192.3 936.8 1191.5 940 L 1198 940 L 1198 942 L 1202 942 L 1202 944 L 1206 944 L 1206 945.5 L 1204.5 945 L 1200.5 945 L 1178.5 936 L 1165.5 928 L 1161.5 927 L 1160.5 925 Z " /><path fill="rgb(255,255,255)" stroke="rgb(255,255,255)" stroke-width="1" opacity="0.996078431372549" d="M 1427 925 L 1429 925.5 L 1427 926.5 L 1427 925 Z " /><path fill="rgb(255,255,255)" stroke="rgb(255,255,255)" stroke-width="1" opacity="0.996078431372549" d="M 1149 927 L 1152 927.5 L 1149.5 929 L 1149 927 Z " /><path fill="rgb(255,255,255)" stroke="rgb(255,255,255)" stroke-width="1" opacity="0.996078431372549" d="M 1423 927 L 1426 927.5 L 1423.5 929 L 1423 927 Z " /><path fill="rgb(255,255,255)" stroke="rgb(255,255,255)" stroke-width="1" opacity="0.996078431372549" d="M 1146 929 L 1148 929.5 L 1146 930.5 L 1146 929 Z " /><path fill="rgb(255,255,255)" stroke="rgb(255,255,255)" stroke-width="1" opacity="0.996078431372549" d="M 1419 929 L 1422 929.5 L 1416.5 932 L 1416.5 931 Q 1420.3 932 1419 929 Z " /><path fill="rgb(255,255,255)" stroke="rgb(255,255,255)" stroke-width="1" opacity="0.996078431372549" d="M 1142 931 L 1145 931.5 L 1142.5 933 L 1142 931 Z " /><path fill="rgb(255,255,255)" stroke="rgb(255,255,255)" stroke-width="1" opacity="0.996078431372549" d="M 756 933 L 760 933.5 L 756 935 L 756 933 Z " /><path fill="rgb(255,255,255)" stroke="rgb(255,255,255)" stroke-width="1" opacity="0.996078431372549" d="M 1138 933 L 1141 933.5 L 1138 935 L 1138 933 Z " /><path fill="rgb(255,255,255)" stroke="rgb(255,255,255)" stroke-width="1" opacity="0.996078431372549" d="M 520.5 938 L 526.5 938 Q 525.7 941.3 531 940 L 531 942 L 538 942 L 538 944 Q 543.2 942.3 542 946 L 522.5 940 L 520.5 938 Z " /><path fill="rgb(255,255,255)" stroke="rgb(255,255,255)" stroke-width="1" opacity="0.996078431372549" d="M 1401 938 L 1404 938.5 L 1401.5 940 L 1401 938 Z " /><path fill="rgb(255,255,255)" stroke="rgb(255,255,255)" stroke-width="1" opacity="0.996078431372549" d="M 733 942 L 737 942.5 L 733 944 L 733 942 Z " /><path fill="rgb(255,255,255)" stroke="rgb(255,255,255)" stroke-width="1" opacity="0.996078431372549" d="M 1389 942 L 1393 942.5 L 1386.5 945 L 1386.5 944 Q 1390.3 945 1389 942 Z " /><path fill="rgb(255,255,255)" stroke="rgb(255,255,255)" stroke-width="1" opacity="0.996078431372549" d="M 729.5 944 L 732 944.5 L 729.5 945 L 729.5 944 Z " /><path fill="rgb(255,255,255)" stroke="rgb(255,255,255)" stroke-width="1" opacity="0.996078431372549" d="M 544.5 946 Q 550.5 944.8 549.5 948 L 557 948 L 557 950 L 546.5 948 L 544.5 946 Z " /><path fill="rgb(255,255,255)" stroke="rgb(255,255,255)" stroke-width="1" opacity="0.996078431372549" d="M 722.5 946 L 725 946.5 L 722.5 947 L 722.5 946 Z " /><path fill="rgb(255,255,255)" stroke="rgb(255,255,255)" stroke-width="1" opacity="0.996078431372549" d="M 1112 946 L 1115 946.5 L 1112.5 948 L 1112 946 Z " /><path fill="rgb(255,255,255)" stroke="rgb(255,255,255)" stroke-width="1" opacity="0.996078431372549" d="M 1207.5 946 Q 1214.5 944.5 1213.5 948 L 1220.5 948 L 1221 950 L 1227.5 950 L 1228.5 952 L 1235.5 952 L 1236 954 L 1220.5 950 L 1216.5 950 L 1207.5 947 L 1207.5 946 Z " /><path fill="rgb(255,255,255)" stroke="rgb(255,255,255)" stroke-width="1" opacity="0.996078431372549" d="M 1378 946 L 1382 946.5 L 1378.5 948 L 1378 946 Z " /><path fill="rgb(255,255,255)" stroke="rgb(255,255,255)" stroke-width="1" opacity="0.996078431372549" d="M 714 948 L 719 948.5 L 714.5 950 L 714 948 Z " /><path fill="rgb(255,255,255)" stroke="rgb(255,255,255)" stroke-width="1" opacity="0.996078431372549" d="M 558.5 950 Q 565.4 948 564 952 L 558.5 951 L 558.5 950 Z " /><path fill="rgb(255,255,255)" stroke="rgb(255,255,255)" stroke-width="1" opacity="0.996078431372549" d="M 707.5 950 L 710 950.5 L 707.5 951 L 707.5 950 Z " /><path fill="rgb(255,255,255)" stroke="rgb(255,255,255)" stroke-width="1" opacity="0.996078431372549" d="M 1363 950 L 1368 950.5 L 1363.5 952 L 1363 950 Z " /><path fill="rgb(255,255,255)" stroke="rgb(255,255,255)" stroke-width="1" opacity="0.996078431372549" d="M 566.5 952 L 575.5 952 L 576.5 954 L 586.5 954 L 587 956 L 570.5 954 L 566.5 953 L 566.5 952 Z " /><path fill="rgb(255,255,255)" stroke="rgb(255,255,255)" stroke-width="1" opacity="0.996078431372549" d="M 696 952 L 702 952.5 L 696 954 L 696 952 Z " /><path fill="rgb(255,255,255)" stroke="rgb(255,255,255)" stroke-width="1" opacity="0.996078431372549" d="M 1097 952 L 1100 952.5 L 1097.5 954 L 1097 952 Z " /><path fill="rgb(255,255,255)" stroke="rgb(255,255,255)" stroke-width="1" opacity="0.996078431372549" d="M 1356 952 L 1361 952.5 L 1356.5 954 L 1356 952 Z " /><path fill="rgb(255,255,255)" stroke="rgb(255,255,255)" stroke-width="1" opacity="0.996078431372549" d="M 681 954 L 693 954.5 L 681 956 L 681 954 Z " /><path fill="rgb(255,255,255)" stroke="rgb(255,255,255)" stroke-width="1" opacity="0.996078431372549" d="M 1089 954 L 1095 954.5 L 1089 956 L 1089 954 Z " /><path fill="rgb(255,255,255)" stroke="rgb(255,255,255)" stroke-width="1" opacity="0.996078431372549" d="M 1237.5 954 L 1250.5 954 L 1251 957 L 1243.5 955 L 1237.5 955 L 1237.5 954 Z " /><path fill="rgb(255,255,255)" stroke="rgb(255,255,255)" stroke-width="1" opacity="0.996078431372549" d="M 1341 954 L 1352 954.5 L 1341 956 L 1341 954 Z " /><path fill="rgb(255,255,255)" stroke="rgb(255,255,255)" stroke-width="1" opacity="0.996078431372549" d="M 595.5 957 L 598 957.5 L 595.5 958 L 595.5 957 Z " /><path fill="rgb(255,255,255)" stroke="rgb(255,255,255)" stroke-width="1" opacity="0.996078431372549" d="M 900.5 957 Q 907.4 955 906 959 Q 901.1 959.8 900.5 957 Z " /><path fill="rgb(255,255,255)" stroke="rgb(255,255,255)" stroke-width="1" opacity="0.996078431372549" d="M 1082 957 L 1085 957.5 L 1082.5 959 L 1082 957 Z " /><path fill="rgb(255,255,255)" stroke="rgb(255,255,255)" stroke-width="1" opacity="0.996078431372549" d="M 1256.5 957 L 1262 957.5 L 1256.5 958 L 1256.5 957 Z " /><path fill="rgb(255,255,255)" stroke="rgb(255,255,255)" stroke-width="1" opacity="0.996078431372549" d="M 1329.5 957 L 1333 957.5 L 1329.5 958 L 1329.5 957 Z " /><path fill="rgb(255,255,255)" stroke="rgb(255,255,255)" stroke-width="1" opacity="0.996078431372549" d="M 622.5 959 L 647 959.5 L 622.5 960 L 622.5 959 Z " /><path fill="rgb(255,255,255)" stroke="rgb(255,255,255)" stroke-width="1" opacity="0.996078431372549" d="M 907.5 959 Q 914.4 957 913 961 L 907.5 960 L 907.5 959 Z " /><path fill="rgb(255,255,255)" stroke="rgb(255,255,255)" stroke-width="1" opacity="0.996078431372549" d="M 1282.5 959 L 1307 959.5 L 1282.5 960 L 1282.5 959 Z " /><path fill="rgb(255,255,255)" stroke="rgb(255,255,255)" stroke-width="1" opacity="0.996078431372549" d="M 914.5 961 Q 922.1 959.5 921 963 L 914.5 962 L 914.5 961 Z " /><path fill="rgb(255,255,255)" stroke="rgb(255,255,255)" stroke-width="1" opacity="0.996078431372549" d="M 923.5 963 L 931.5 963 L 932.5 965 L 939 965 L 939 967 L 923.5 964 L 923.5 963 Z " /><path fill="rgb(255,255,255)" stroke="rgb(255,255,255)" stroke-width="1" opacity="0.996078431372549" d="M 1056 963 L 1063 963.5 L 1056 965 L 1056 963 Z " /><path fill="rgb(255,255,255)" stroke="rgb(255,255,255)" stroke-width="1" opacity="0.996078431372549" d="M 1048.5 965 L 1053 965.5 L 1048.5 966 L 1048.5 965 Z " /><path fill="rgb(255,255,255)" stroke="rgb(255,255,255)" stroke-width="1" opacity="0.996078431372549" d="M 941.5 967 L 953.5 967 L 954 969 Q 949.5 967.3 941.5 968 L 941.5 967 Z " /><path fill="rgb(255,255,255)" stroke="rgb(255,255,255)" stroke-width="1" opacity="0.996078431372549" d="M 1037.5 967 L 1043 967.5 L 1037.5 968 L 1037.5 967 Z " /><path fill="rgb(255,255,255)" stroke="rgb(255,255,255)" stroke-width="1" opacity="0.996078431372549" d="M 960.5 969 L 976.5 969 L 977 971 L 960.5 970 L 960.5 969 Z " /><path fill="rgb(255,255,255)" stroke="rgb(255,255,255)" stroke-width="1" opacity="0.996078431372549" d="M 1011 969 L 1026 969.5 L 1011 971 L 1011 969 Z " /><path fill="rgb(255,255,255)" stroke="rgb(255,255,255)" stroke-width="1" opacity="0.996078431372549" d="M 989.5 971 L 997 971.5 L 989.5 972 L 989.5 971 Z " /><path fill="rgb(255,255,255)" stroke="rgb(255,255,255)" stroke-width="1" opacity="1" d="M 1018 111 L 1055.5 111 L 1056.5 113 L 1070.5 113 L 1071.5 115 L 1085.5 115 L 1086.5 117 L 1096.5 117 L 1097.5 119 L 1107.5 119 Q 1106.7 122.3 1112 121 L 1112 123 L 1119 123 L 1119 126 L 1126.5 126 L 1127 128 L 1133.5 128 Q 1132.7 131.3 1138 130 L 1138 132 L 1146 132 L 1146 134 Q 1150.1 132.7 1149 136 L 1153 136 L 1153 138 Q 1158.3 136.8 1157.5 140 L 1164 140 L 1164 142 L 1167.5 142 Q 1166.7 145.3 1172 144 L 1172 147 L 1176 147 L 1176 149 Q 1180.1 147.7 1179 151 L 1183 151 L 1183 153 L 1186.5 153 Q 1185.7 156.3 1191 155 Q 1189.9 158.3 1194 157 L 1194 161 L 1198 161 Q 1196.8 164.7 1202 163 L 1202 166 L 1206 166 Q 1204.9 169.3 1209 168 L 1209 172 L 1212.5 172 Q 1211.7 175.3 1217 174 L 1217 178 L 1221 178 L 1221 180 Q 1225.1 178.7 1224 182 L 1228 182 L 1228 187 L 1232 187 L 1232 191 Q 1238 189 1236 195 Q 1240.1 193.7 1239 197 L 1243 197 L 1243 201 L 1247 201 L 1247 206 L 1251 206 L 1251 210 Q 1255.9 208.4 1254 214 L 1258 214 Q 1256 220 1262 218 L 1262 225 L 1266 225 L 1266 231 Q 1270.9 229.4 1269 235 L 1273 235 L 1273 242 L 1277 242 L 1277 248 L 1281 248 L 1281 254 L 1284 254.5 L 1284 261 L 1288 261 L 1288 269 L 1292 269 L 1292 279 L 1296 279 L 1296 286 Q 1300.1 284.7 1299 288 L 1336.5 288 L 1337.5 290 L 1351.5 290 L 1352.5 292 L 1370.5 292 L 1371.5 294 L 1381.5 294 L 1382.5 296 L 1392.5 296 Q 1391.7 299.3 1397 298 L 1397.5 301 L 1407.5 301 L 1408.5 303 L 1415.5 303 L 1416.5 305 L 1423 305 L 1423 307 Q 1428.3 305.8 1427.5 309 Q 1435.4 307.8 1434.5 311 L 1442 311 L 1442 313 L 1446 313 L 1446 315 Q 1450.1 313.7 1449 317 L 1457 317 L 1457 320 L 1461 320 L 1461 322 Q 1465.1 320.7 1464 324 L 1468 324 L 1468 326 L 1476 326 L 1476 328 Q 1480.1 326.7 1479 330 L 1483 330 L 1483 332 L 1486.5 332 Q 1485.7 335.3 1491 334 Q 1489.9 337.3 1494 336 L 1494 339 L 1498 339 L 1498 343 L 1501.5 343 Q 1500.7 346.3 1506 345 Q 1504.9 348.3 1509 347 L 1509 351 L 1513 351 L 1513 353 L 1516.5 353 Q 1515.7 356.3 1521 355 Q 1519.5 359.5 1524 358 L 1524 362 L 1527.5 362 Q 1526.7 365.3 1532 364 L 1532 368 Q 1538 366 1536 372 Q 1540.1 370.7 1539 374 L 1543 374 L 1543 379 L 1547 379 Q 1545 385 1551 383 L 1551 387 Q 1555.9 385.4 1554 391 L 1558 391 Q 1555.6 398.1 1562 396 L 1562 402 L 1566 402 L 1566 408 Q 1570.9 406.4 1569 412 L 1573 412 L 1573 421 L 1577 421 L 1577 427 L 1581 427 L 1581 436 L 1584 436 L 1584 444 L 1588 444 L 1588 454.5 L 1590.5 455 L 1592 456.5 L 1592 482 Q 1596.5 480.3 1595 485.5 L 1596 490 L 1599 490 L 1599.5 493 Q 1608.3 491.6 1607.5 495 L 1617.5 495 L 1618 497 Q 1623.3 495.8 1622.5 499 Q 1630.4 497.8 1629.5 501 L 1637 501 L 1637 503 Q 1642.2 501.3 1641 505 L 1647.5 505 Q 1646.7 508.3 1652 507 L 1652 509 L 1656 509 L 1656 512 L 1663 512 L 1663 514 L 1666.5 514 Q 1665.7 517.3 1671 516 L 1671 518 Q 1675.1 516.7 1674 520 L 1678 520 L 1678 522 L 1681.5 522 Q 1680.7 525.3 1686 524 L 1686 526 Q 1690.1 524.7 1689 528 L 1693 528 L 1693 531 L 1697 531 L 1697 533 L 1701 533 L 1701 535 Q 1705.1 533.7 1704 537 L 1708 537 L 1708 541 L 1711.5 541 Q 1710.7 544.3 1716 543 L 1716 547 Q 1720.1 545.7 1719 549 L 1723 549 L 1723 554 L 1726.5 554 Q 1725.7 557.3 1731 556 L 1731 560 Q 1735.1 558.7 1734 562 L 1738 562 L 1738 568 L 1742 568 Q 1740.4 572.9 1746 571 L 1746 577 Q 1750.1 575.7 1749 579 L 1753 579 L 1753 585 L 1757 585 Q 1754.6 592.1 1761 590 L 1761 598 Q 1765.9 596.4 1764 602 L 1768 602 L 1768 609 L 1772 609 L 1772 619 L 1776 619.5 L 1776 630 L 1779 630 L 1779 638 L 1783 638.5 L 1783 660.5 L 1786 661 L 1786 664.5 L 1787 665.5 L 1787 675.5 L 1786 680 L 1783 680.5 L 1783 702.5 L 1779 703 L 1779 715.5 L 1776 716 L 1776 723.5 L 1775 727 Q 1770.1 725.2 1772 731.5 L 1771 735 Q 1766.1 733.2 1768 739.5 L 1764 741 L 1764 746 Q 1759.1 744.2 1761 750.5 L 1757 752 Q 1759 758 1753 756 L 1753 761.5 L 1749 763 L 1747.5 767 Q 1745.3 766.3 1746 768.5 L 1742 771 Q 1743.5 774.7 1740.5 774 L 1738 775 Q 1739.5 778.7 1736.5 778 L 1734 779 L 1732.5 782 Q 1729.9 781.3 1731 784 L 1727 784 L 1727 786.5 L 1723 788 Q 1724.2 791.7 1719 790 L 1719 792.5 L 1716 794 L 1716 796 L 1712.5 796 Q 1713.3 799.3 1708 798 L 1708 801 L 1704 801 Q 1705.5 804.8 1702.5 804 Q 1697.2 809.5 1689 811 L 1689 813 L 1682 813 L 1682 815 L 1678 815 L 1678 817 L 1674 817 L 1674 819 Q 1670.3 817.5 1671 820.5 Q 1666.7 824.8 1659 824 Q 1660.3 827 1656.5 826 Q 1654 829.2 1648 828 Q 1649.3 831.3 1644.5 830 L 1642.5 832 L 1633 832 L 1633 834 Q 1627.8 832.3 1629 836 L 1618.5 836 L 1618 838 L 1611.5 838 L 1611 840 L 1608.5 840 L 1607.5 841 L 1599.5 841 L 1595.5 843 L 1588.5 843 L 1582.5 845 L 1554 845 L 1553.5 847 L 1529.5 847 L 1520.5 845 L 1499.5 845 L 1495.5 844 Q 1493 845.2 1494 849 L 1491 849.5 L 1491 858.5 L 1487 860 L 1487 867.5 L 1483 868 L 1483 874.5 L 1479 876 L 1479 881 Q 1474.5 879.3 1476 884.5 L 1472 887 L 1470.5 891 Q 1465.9 889.8 1468 895 L 1464 895 L 1464 898.5 L 1461 900 Q 1462.2 903.7 1457 902 L 1457 906 L 1453 906 L 1453 908.5 L 1449 910 L 1449 912 Q 1444.9 910.7 1446 914 L 1442 914 L 1442 918 L 1440.5 918 Q 1438.6 921.6 1434 921 L 1434 923 Q 1429.9 921.7 1431 925 L 1427 925 L 1427 927 L 1423 927 L 1423 929 L 1419 929 L 1419 931 L 1416 931 L 1416 933 L 1412 933 L 1412 934.5 L 1405.5 938 L 1401 938 Q 1402.3 941.3 1397.5 940 Q 1395.6 943.8 1389 942 L 1389 944 Q 1384.9 942.7 1386 946 L 1378.5 946 Q 1379.5 949 1374.5 948 L 1372.5 950 L 1363 950 L 1363 952 L 1356.5 952 L 1355.5 954 L 1341.5 954 L 1341 955.5 L 1339.5 957 Q 1329.8 955.3 1325.5 959 L 1263.5 959 L 1261.5 957 L 1251 957 L 1250.5 954 L 1236.5 954 L 1235.5 952 L 1228.5 952 L 1228 950 L 1221.5 950 L 1220.5 948 L 1213.5 948 L 1212.5 946 L 1206 946 L 1206 944 L 1202 944 L 1202 942 Q 1196.8 943.7 1198 940 L 1191.5 940 Q 1192.3 936.8 1187 938 L 1187 936 L 1183 936 L 1183 933 L 1176 933 L 1176 929 L 1172 929 L 1172 927 Q 1166.8 928.7 1168 925 L 1158.5 925 L 1156.5 924 L 1153 925 L 1153 927 L 1149 927 L 1149 929 Q 1144.9 927.7 1146 931 L 1142 931 Q 1143.2 934.7 1138 933 L 1138 936 L 1134 936 Q 1135.3 939 1131.5 938 L 1121.5 944 L 1112 946 L 1112 948 Q 1106.7 946.8 1107.5 950 L 1104.5 950 Q 1102.3 953 1097 952 L 1097 954 L 1089.5 954 L 1089 955.5 Q 1087.4 958.5 1082 957 Q 1083.3 960.3 1078.5 959 L 1067.5 963 L 1056 963 L 1056 965 L 1048.5 965 L 1047.5 967 L 1037.5 967 L 1034.5 969 L 1011 969 L 1010.5 971 L 977 971 L 976.5 969 L 954.5 969 L 953.5 967 L 939.5 967 L 939 965 L 932.5 965 L 931.5 963 L 921.5 963 L 921 961 L 913.5 961 L 913 959 L 906.5 959 L 905.5 957 L 898 957 L 898 954 L 891 954 L 891 952 L 887 952 L 887 950 Q 881.7 951.3 882.5 948 L 876 948 L 876 946 L 872 946 L 872 944 Q 866.8 945.7 868 942 L 861 942 L 861 938 L 853 938 Q 854.2 934.3 849 936 L 849 933 L 846 933 L 846 929 L 838 929 L 838 925 L 834 925 L 834 923 Q 829.9 924.3 831 921 L 827 921 L 827 919 L 823.5 919 Q 824.3 915.8 819 917 L 819 912 L 812.5 912 Q 813.5 908.7 807.5 910 L 804.5 909 L 801 910 L 801 912 L 797.5 912 Q 798.3 915.3 793 914 L 793 917 L 789 917 L 789 918.5 L 782.5 923 L 778 923 L 778 925 L 774 925 L 774 927 Q 769.9 925.7 771 929 Q 765.7 927.8 766.5 931 L 763.5 931 Q 761.8 934.5 756 933 Q 757.8 937.5 752.5 936 L 750.5 938 L 745.5 940 L 741.5 940 L 739.5 942 L 733 942 L 733 944 Q 727.7 942.8 728.5 946 L 722.5 946 L 721.5 948 L 714.5 948 Q 715.4 951.2 707.5 950 L 705.5 952 L 696 952 L 695.5 954 L 681.5 954 L 681 955.5 L 679.5 957 L 673.5 957 L 665.5 959 L 602.5 959 Q 596.9 955.4 587 957 L 586.5 954 L 576.5 954 L 575.5 952 L 564.5 952 L 564 950 L 557.5 950 L 556.5 948 L 549.5 948 Q 550.4 944.8 542.5 946 Q 543.3 942.8 538 944 L 538 942 L 531.5 942 Q 532.3 938.8 527 940 L 527 938 L 519 938 Q 520.1 934.7 516 936 L 516 933 L 508.5 933 Q 509.3 929.8 504 931 L 504 929 Q 499.9 930.3 501 927 L 497 927 L 497 925 L 493.5 925 Q 494.3 921.7 489 923 L 489 921 Q 484.9 922.3 486 919 L 482.5 919 Q 483.3 915.8 478 917 L 478 914 L 474 914 L 474 912 Q 469.9 913.3 471 910 L 467 910 L 467 906 L 463 906 L 463 904 L 459 904 Q 460.1 900.7 456 902 L 456 898 L 452 898 L 452 895 L 448.5 895 Q 449.3 891.8 444 893 L 444 889 Q 439.1 890.6 441 885 L 437 885 Q 438.2 881.3 433 883 L 433 879 L 429 879 L 429 874 Q 424.1 875.6 426 870 L 422 870 Q 423.2 866.3 418 868 L 418 864 L 414 864 L 414 857 Q 409.1 858.6 411 853 L 407 853 L 407 849 L 403 849 L 403 843 L 399 843 L 399 838 L 396 837.5 L 396 832 L 392 832 L 392 826 L 388 826 L 388 819 L 384 819 L 384 813 L 381 812.5 L 381 805 L 377 804.5 L 377 792 L 373 792 L 373 784 L 369 784 L 369 771.5 L 366 770.5 L 366 756.5 L 362 755.5 L 362 722 L 358 722 L 358 720 Q 352.7 721.3 353.5 718 L 343.5 718 L 343 716 L 336.5 716 L 335.5 714 L 324.5 714 L 324 712 L 317.5 712 L 316.5 710 L 309.5 710 Q 310.3 707 306 708 L 306 706 L 298 706 L 298 703 Q 292.8 704.7 294 701 L 287.5 701 L 286.5 699 L 279 699 L 279 697 Q 274.9 698.3 276 695 L 272 695 L 272 693 L 268 693 L 268 691 Q 262.8 692.7 264 689 L 257 689 L 257 687 L 253 687 L 253 684 L 249 684 L 249 682 Q 244.9 683.3 246 680 L 242 680 L 242 678 L 238 678 L 238 676 L 234 676 Q 235.1 672.7 231 674 L 231 670 L 227 670 L 227 668 L 223.5 668 Q 224.3 664.8 219 666 Q 220.5 661.5 216 663 L 216 659 L 212.5 659 Q 213.3 655.8 208 657 L 208 653 L 204 653 Q 205.1 649.7 201 651 L 201 647 L 197 647 L 197 642 L 193.5 642 Q 194.3 638.8 189 640 L 189 636 Q 184.1 637.6 186 632 L 182 632 Q 184 626 178 628 L 178 623 L 174 623 Q 175.9 617.4 171 619 L 171 613 L 167 613 L 167 606 L 163 606 L 163 600 L 159 600 L 159 594 L 156 594 L 156 585 L 152 585 L 152 579 L 148 578.5 L 148 566.5 L 144 566 L 144 554.5 L 141 553.5 L 141 493 L 144 492.5 L 144 478.5 L 148 478 L 148 467.5 L 152 467 L 152 457 L 156 457 L 156 450 L 159 449.5 L 159 442 L 163 442 Q 161 436 167 438 L 167 431 L 171 431 L 171 425 Q 175.9 426.6 174 421 L 178 421 Q 176 415 182 417 L 182 412 L 186 412 L 186 408 Q 190.9 409.6 189 404 L 193 404 L 193 400 L 196.5 400 Q 195.7 396.8 201 398 L 201 393 Q 205.1 394.3 204 391 L 208 391 L 208 387 L 211.5 387 Q 210.7 383.8 216 385 L 216 381 Q 220.1 382.3 219 379 L 223 379 L 223 377 L 227 377 Q 225.4 372.1 231 374 L 231 370 Q 235.1 371.3 234 368 L 238 368 L 238 366 L 242 366 L 242 364 L 246 364 L 246 362 Q 250.1 363.3 249 360 L 253 360 L 253 358 L 257 358 L 257 355 L 261 355 L 261 353 Q 265.1 354.3 264 351 L 272 351 L 272 349 L 276 349 L 276 347 Q 280.1 348.3 279 345 L 287 345 L 287 343 Q 292.3 344.3 291.5 341 Q 299.4 342.2 298.5 339 L 306 339 L 306 336 Q 310.3 337 309.5 334 L 316.5 334 L 317 332 L 323.5 332 L 324.5 330 L 335.5 330 L 336 328 L 342.5 328 L 343.5 326 L 357.5 326 L 358 324 L 368.5 324 L 369.5 322 L 406.5 322 L 407.5 320 L 429 320 L 429 317 L 433 317 Q 431.8 313.3 437 315 L 437 311 L 441 311 L 441 305 Q 445.9 306.6 444 301 L 448 301 L 448 296 Q 454 298 452 292 L 456 292 L 456 288 Q 460.9 289.6 459 284 L 463 284 L 463 279 L 466.5 279 Q 465.7 275.8 471 277 L 471 273 Q 475.9 274.6 474 269 L 478 269 L 478 267 L 481.5 267 Q 480.7 263.8 486 265 L 486 261 Q 490.5 262.5 489 258 L 493 258 L 493 254 L 497 254 L 497 252 L 501 252 L 501 250 Q 505.1 251.3 504 248 L 508 248 L 508 246 L 511.5 246 Q 510.7 242.8 516 244 Q 514.9 240.7 519 242 L 519 239 L 523 239 L 523 237 L 526.5 237 Q 525.7 233.8 531 235 L 531 233 Q 535.1 234.3 534 231 L 538 231 L 538 229 L 542 229 L 542 227 Q 547.2 228.7 546 225 L 553 225 L 553 223 L 557 223 L 557 220 Q 562.3 221.3 561.5 218 Q 569.4 219.2 568.5 216 L 576 216 L 576 214 Q 580.1 215.3 579 212 L 590.5 212 L 591.5 210 Q 599.4 211.2 598.5 208 L 608.5 208 L 609 206 L 616.5 206 L 617.5 204 L 638.5 204 L 639.5 201 L 699 201 L 699.5 204 L 717.5 204 L 718.5 206 L 728.5 206 L 729 208 L 736.5 208 L 737 210 L 743.5 210 L 744.5 212 L 755.5 212 Q 754.8 215 759 214 L 759 216 L 766.5 216 Q 765.7 219.3 771 218 L 771 220 L 778 220 L 778 223 Q 783.3 221.8 782.5 225 L 789 225 L 789 227 Q 794.2 225.3 793 229 L 804 229 L 804 227 L 807.5 227 Q 806.7 223.8 812 225 L 812 218 L 816 217.5 L 816 210 Q 820.1 211.3 819 208 L 823 208 L 823 204 L 827 204 L 827 199 L 831 199 L 831 195 Q 835.9 196.6 834 191 L 837.5 191 Q 836.7 187.8 842 189 L 842 185 L 846 185 Q 844.5 180.5 849 182 L 849 178 Q 855 180 853 174 L 856.5 174 Q 855.7 170.8 861 172 Q 859.9 168.7 864 170 L 864 166 L 868 166 L 868 163 L 872 163 L 872 161 L 876 161 L 876 159 Q 880.1 160.3 879 157 L 883 157 L 883 153 L 887 153 L 887 151 L 891 151 L 891 149 Q 895.1 150.3 894 147 L 898 147 L 898 144 L 906 144 L 906 140 L 913 140 L 913 138 L 916.5 138 Q 915.7 134.8 921 136 L 921 134 Q 925.1 135.3 924 132 L 932 132 L 932 130 Q 937.2 131.7 936 128 L 942.5 128 L 943.5 126 L 951 126 L 951 123 L 957.5 123 L 958.5 121 Q 967.3 122.4 966.5 119 L 976.5 119 L 977 117 L 983.5 117 L 984.5 115 L 1002.5 115 L 1003.5 113 L 1017.5 113 L 1018 111 Z M 1270 683 L 1268 685 L 1269 687 L 1269 689 L 1276 689 L 1277 686 L 1276 684 Q 1271 685 1270 683 Z " /></svg>