<svg xmlns="http://www.w3.org/2000/svg" xmlns:xlink="http://www.w3.org/1999/xlink" width="1366" zoomAndPan="magnify" viewBox="0 0 1024.5 576" height="768" preserveAspectRatio="xMidYMid meet" version="1.2"><defs/><g id="0165685630"><g style="fill:#ffffff;fill-opacity:1;"><g transform="translate(208.788335, 279.173959)"><path style="stroke:none" d="M 4.46875 0 L 4.46875 -1.28125 L 8.671875 -2.546875 C 10.203125 -2.972656 11.304688 -3.800781 11.984375 -5.03125 C 12.671875 -6.269531 13.015625 -7.738281 13.015625 -9.4375 L 13.015625 -70.8125 C 12.078125 -72.851562 11.332031 -74.382812 10.78125 -75.40625 C 10.226562 -76.425781 9.609375 -77.296875 8.921875 -78.015625 C 8.242188 -78.742188 7.3125 -79.660156 6.125 -80.765625 L 3.953125 -82.9375 L 3.953125 -84.21875 L 26.546875 -84.21875 L 68.90625 -26.40625 L 68.90625 -74.515625 C 68.90625 -76.210938 68.625 -77.742188 68.0625 -79.109375 C 67.507812 -80.472656 66.382812 -81.363281 64.6875 -81.78125 L 60.484375 -82.9375 L 60.484375 -84.21875 L 78.71875 -84.21875 L 78.71875 -82.9375 L 75.28125 -81.78125 C 73.75 -81.269531 72.8125 -80.375 72.46875 -79.09375 C 72.132812 -77.820312 71.96875 -76.335938 71.96875 -74.640625 L 71.96875 0.375 L 64.8125 0.375 L 16.078125 -66.609375 L 16.078125 -9.4375 C 16.078125 -7.738281 16.332031 -6.289062 16.84375 -5.09375 C 17.351562 -3.90625 18.414062 -3.054688 20.03125 -2.546875 L 23.859375 -1.28125 L 23.859375 0 Z M 4.46875 0 "/></g></g><g style="fill:#ffffff;fill-opacity:1;"><g transform="translate(288.017721, 279.173959)"><path style="stroke:none" d="M 21.1875 1.90625 C 16.25 1.90625 12.097656 0.503906 8.734375 -2.296875 C 5.378906 -5.097656 3.703125 -9.140625 3.703125 -14.421875 C 3.703125 -18.421875 5.742188 -22.097656 9.828125 -25.453125 C 13.910156 -28.816406 20.332031 -31.347656 29.09375 -33.046875 C 30.457031 -33.296875 31.988281 -33.570312 33.6875 -33.875 C 35.382812 -34.175781 37.171875 -34.492188 39.046875 -34.828125 L 39.046875 -44.90625 C 39.046875 -50.695312 38.34375 -54.757812 36.9375 -57.09375 C 35.53125 -59.4375 33.34375 -60.609375 30.375 -60.609375 C 28.332031 -60.609375 26.710938 -59.945312 25.515625 -58.625 C 24.328125 -57.3125 23.5625 -55.035156 23.21875 -51.796875 L 22.96875 -50.40625 C 22.800781 -46.738281 21.90625 -44.054688 20.28125 -42.359375 C 18.664062 -40.660156 16.671875 -39.8125 14.296875 -39.8125 C 12.078125 -39.8125 10.242188 -40.488281 8.796875 -41.84375 C 7.359375 -43.207031 6.640625 -45.039062 6.640625 -47.34375 C 6.640625 -50.820312 7.847656 -53.753906 10.265625 -56.140625 C 12.691406 -58.523438 15.90625 -60.3125 19.90625 -61.5 C 23.90625 -62.6875 28.242188 -63.28125 32.921875 -63.28125 C 40.492188 -63.28125 46.34375 -61.429688 50.46875 -57.734375 C 54.59375 -54.035156 56.65625 -48.019531 56.65625 -39.6875 L 56.65625 -11.484375 C 56.65625 -7.648438 58.441406 -5.734375 62.015625 -5.734375 L 64.8125 -5.734375 L 65.96875 -4.71875 C 64.351562 -2.675781 62.585938 -1.101562 60.671875 0 C 58.753906 1.101562 56.050781 1.65625 52.5625 1.65625 C 48.820312 1.65625 45.867188 0.785156 43.703125 -0.953125 C 41.535156 -2.703125 40.109375 -5.019531 39.421875 -7.90625 C 36.867188 -5.1875 34.253906 -2.867188 31.578125 -0.953125 C 28.898438 0.953125 25.4375 1.90625 21.1875 1.90625 Z M 28.96875 -5.875 C 30.664062 -5.875 32.257812 -6.273438 33.75 -7.078125 C 35.238281 -7.890625 37.003906 -9.144531 39.046875 -10.84375 L 39.046875 -32.28125 C 38.191406 -32.113281 37.335938 -31.941406 36.484375 -31.765625 C 35.640625 -31.597656 34.664062 -31.429688 33.5625 -31.265625 C 29.644531 -30.242188 26.515625 -28.519531 24.171875 -26.09375 C 21.835938 -23.664062 20.671875 -20.410156 20.671875 -16.328125 C 20.671875 -12.835938 21.476562 -10.222656 23.09375 -8.484375 C 24.707031 -6.742188 26.664062 -5.875 28.96875 -5.875 Z M 28.96875 -5.875 "/></g></g><g style="fill:#ffffff;fill-opacity:1;"><g transform="translate(354.106105, 279.173959)"><path style="stroke:none" d="M 24.625 1.90625 C 20.457031 1.90625 16.710938 1.414062 13.390625 0.4375 C 10.078125 -0.53125 7.015625 -1.738281 4.203125 -3.1875 L 4.34375 -18.375 L 5.609375 -18.375 L 9.953125 -10.71875 C 11.828125 -7.3125 13.890625 -4.78125 16.140625 -3.125 C 18.390625 -1.46875 21.257812 -0.640625 24.75 -0.640625 C 28.832031 -0.640625 32.128906 -1.550781 34.640625 -3.375 C 37.148438 -5.207031 38.40625 -7.65625 38.40625 -10.71875 C 38.40625 -13.519531 37.507812 -15.8125 35.71875 -17.59375 C 33.9375 -19.382812 30.625 -21.003906 25.78125 -22.453125 L 20.421875 -24.109375 C 15.222656 -25.640625 11.132812 -28.019531 8.15625 -31.25 C 5.1875 -34.488281 3.703125 -38.445312 3.703125 -43.125 C 3.703125 -48.738281 5.910156 -53.5 10.328125 -57.40625 C 14.753906 -61.320312 21.09375 -63.28125 29.34375 -63.28125 C 32.664062 -63.28125 35.789062 -62.921875 38.71875 -62.203125 C 41.65625 -61.484375 44.484375 -60.398438 47.203125 -58.953125 L 46.4375 -45.171875 L 45.171875 -45.171875 L 40.703125 -53.078125 C 39.085938 -55.890625 37.492188 -57.867188 35.921875 -59.015625 C 34.347656 -60.160156 31.988281 -60.734375 28.84375 -60.734375 C 25.945312 -60.734375 23.222656 -59.925781 20.671875 -58.3125 C 18.117188 -56.695312 16.84375 -54.398438 16.84375 -51.421875 C 16.84375 -48.523438 17.925781 -46.226562 20.09375 -44.53125 C 22.257812 -42.832031 25.472656 -41.257812 29.734375 -39.8125 L 35.46875 -38.15625 C 41.59375 -36.28125 45.972656 -33.703125 48.609375 -30.421875 C 51.242188 -27.148438 52.5625 -23.21875 52.5625 -18.625 C 52.5625 -12.414062 50.113281 -7.441406 45.21875 -3.703125 C 40.332031 0.0351562 33.46875 1.90625 24.625 1.90625 Z M 24.625 1.90625 "/></g></g><g style="fill:#ffffff;fill-opacity:1;"><g transform="translate(409.34985, 279.173959)"><path style="stroke:none" d="M 17.859375 -69.921875 C 14.972656 -69.921875 12.53125 -70.832031 10.53125 -72.65625 C 8.53125 -74.488281 7.53125 -76.8125 7.53125 -79.625 C 7.53125 -82.507812 8.53125 -84.84375 10.53125 -86.625 C 12.53125 -88.414062 14.972656 -89.3125 17.859375 -89.3125 C 20.753906 -89.3125 23.179688 -88.414062 25.140625 -86.625 C 27.097656 -84.84375 28.078125 -82.507812 28.078125 -79.625 C 28.078125 -76.8125 27.097656 -74.488281 25.140625 -72.65625 C 23.179688 -70.832031 20.753906 -69.921875 17.859375 -69.921875 Z M 2.8125 0 L 2.8125 -1.28125 L 4.59375 -1.78125 C 6.289062 -2.289062 7.457031 -3.054688 8.09375 -4.078125 C 8.738281 -5.097656 9.0625 -6.460938 9.0625 -8.171875 L 9.0625 -48.109375 C 9.0625 -49.890625 8.738281 -51.226562 8.09375 -52.125 C 7.457031 -53.019531 6.289062 -53.632812 4.59375 -53.96875 L 2.8125 -54.359375 L 2.8125 -55.625 L 26.15625 -63.15625 L 27.4375 -61.890625 L 27.046875 -43.765625 L 27.046875 -8.03125 C 27.046875 -6.332031 27.363281 -4.972656 28 -3.953125 C 28.644531 -2.929688 29.773438 -2.164062 31.390625 -1.65625 L 32.65625 -1.28125 L 32.65625 0 Z M 2.8125 0 "/></g></g><g style="fill:#ffffff;fill-opacity:1;"><g transform="translate(445.073294, 279.173959)"><path style="stroke:none" d=""/></g></g><g style="fill:#268fcf;fill-opacity:1;"><g transform="translate(472.900159, 279.173959)"><path style="stroke:none" d="M 30.234375 2.296875 C 25.554688 2.296875 20.789062 1.722656 15.9375 0.578125 C 11.09375 -0.566406 7.054688 -2.078125 3.828125 -3.953125 L 4.46875 -21.3125 L 5.734375 -21.3125 L 9.703125 -13.015625 C 10.890625 -10.628906 12.160156 -8.519531 13.515625 -6.6875 C 14.878906 -4.863281 16.753906 -3.441406 19.140625 -2.421875 C 20.835938 -1.566406 22.472656 -0.988281 24.046875 -0.6875 C 25.617188 -0.394531 27.382812 -0.25 29.34375 -0.25 C 34.53125 -0.25 38.632812 -1.648438 41.65625 -4.453125 C 44.675781 -7.265625 46.1875 -10.882812 46.1875 -15.3125 C 46.1875 -19.476562 45.164062 -22.726562 43.125 -25.0625 C 41.082031 -27.40625 37.804688 -29.6875 33.296875 -31.90625 L 28.078125 -34.1875 C 20.753906 -37.425781 15.03125 -41.148438 10.90625 -45.359375 C 6.78125 -49.566406 4.71875 -55.160156 4.71875 -62.140625 C 4.71875 -67.160156 6.015625 -71.5 8.609375 -75.15625 C 11.203125 -78.8125 14.816406 -81.617188 19.453125 -83.578125 C 24.085938 -85.535156 29.507812 -86.515625 35.71875 -86.515625 C 40.226562 -86.515625 44.503906 -85.914062 48.546875 -84.71875 C 52.585938 -83.53125 56.097656 -81.914062 59.078125 -79.875 L 58.3125 -64.5625 L 57.03125 -64.5625 L 51.796875 -74.125 C 50.359375 -77.101562 48.914062 -79.207031 47.46875 -80.4375 C 46.019531 -81.675781 44.359375 -82.550781 42.484375 -83.0625 C 41.378906 -83.40625 40.359375 -83.640625 39.421875 -83.765625 C 38.484375 -83.890625 37.296875 -83.953125 35.859375 -83.953125 C 31.515625 -83.953125 27.851562 -82.695312 24.875 -80.1875 C 21.90625 -77.675781 20.421875 -74.296875 20.421875 -70.046875 C 20.421875 -65.710938 21.566406 -62.25 23.859375 -59.65625 C 26.160156 -57.0625 29.519531 -54.742188 33.9375 -52.703125 L 39.8125 -50.140625 C 47.976562 -46.566406 53.847656 -42.757812 57.421875 -38.71875 C 60.992188 -34.675781 62.78125 -29.46875 62.78125 -23.09375 C 62.78125 -15.601562 59.953125 -9.5 54.296875 -4.78125 C 48.640625 -0.0625 40.617188 2.296875 30.234375 2.296875 Z M 30.234375 2.296875 "/></g></g><g style="fill:#268fcf;fill-opacity:1;"><g transform="translate(539.37129, 279.173959)"><path style="stroke:none" d="M 34.578125 -63.28125 C 40.109375 -63.28125 44.828125 -62.15625 48.734375 -59.90625 C 52.648438 -57.65625 55.648438 -54.59375 57.734375 -50.71875 C 59.816406 -46.84375 60.859375 -42.441406 60.859375 -37.515625 C 60.859375 -36.578125 60.816406 -35.617188 60.734375 -34.640625 C 60.648438 -33.660156 60.476562 -32.789062 60.21875 -32.03125 L 22.203125 -32.03125 C 22.285156 -22.84375 23.921875 -16.226562 27.109375 -12.1875 C 30.304688 -8.144531 35.050781 -6.125 41.34375 -6.125 C 45.59375 -6.125 49.035156 -6.800781 51.671875 -8.15625 C 54.304688 -9.519531 56.773438 -11.519531 59.078125 -14.15625 L 60.359375 -13.015625 C 57.710938 -8.335938 54.195312 -4.679688 49.8125 -2.046875 C 45.4375 0.585938 40.1875 1.90625 34.0625 1.90625 C 28.03125 1.90625 22.671875 0.609375 17.984375 -1.984375 C 13.304688 -4.578125 9.648438 -8.296875 7.015625 -13.140625 C 4.378906 -17.992188 3.0625 -23.78125 3.0625 -30.5 C 3.0625 -37.46875 4.59375 -43.394531 7.65625 -48.28125 C 10.71875 -53.175781 14.648438 -56.898438 19.453125 -59.453125 C 24.265625 -62.003906 29.304688 -63.28125 34.578125 -63.28125 Z M 34.1875 -60.734375 C 31.726562 -60.734375 29.625 -59.988281 27.875 -58.5 C 26.132812 -57.007812 24.773438 -54.367188 23.796875 -50.578125 C 22.816406 -46.796875 22.285156 -41.460938 22.203125 -34.578125 L 44.015625 -34.578125 C 44.867188 -43.847656 44.53125 -50.523438 43 -54.609375 C 41.46875 -58.691406 38.53125 -60.734375 34.1875 -60.734375 Z M 34.1875 -60.734375 "/></g></g><g style="fill:#268fcf;fill-opacity:1;"><g transform="translate(602.014864, 279.173959)"><path style="stroke:none" d="M 2.9375 0 L 2.9375 -1.28125 L 4.46875 -1.78125 C 7.53125 -2.800781 9.0625 -4.929688 9.0625 -8.171875 L 9.0625 -76.296875 C 9.0625 -78.085938 8.757812 -79.40625 8.15625 -80.25 C 7.5625 -81.101562 6.414062 -81.742188 4.71875 -82.171875 L 2.8125 -82.6875 L 2.8125 -83.953125 L 25.265625 -89.4375 L 27.3125 -88.296875 L 26.796875 -70.296875 L 26.796875 -54.359375 C 29.773438 -56.828125 32.984375 -58.929688 36.421875 -60.671875 C 39.867188 -62.410156 43.675781 -63.28125 47.84375 -63.28125 C 53.375 -63.28125 57.773438 -61.707031 61.046875 -58.5625 C 64.328125 -55.414062 65.96875 -50.566406 65.96875 -44.015625 L 65.96875 -8.03125 C 65.96875 -6.332031 66.304688 -4.972656 66.984375 -3.953125 C 67.660156 -2.929688 68.851562 -2.164062 70.5625 -1.65625 L 71.578125 -1.28125 L 71.578125 0 L 41.71875 0 L 41.71875 -1.28125 L 43.25 -1.65625 C 46.3125 -2.675781 47.84375 -4.847656 47.84375 -8.171875 L 47.84375 -48.234375 C 47.84375 -51.628906 47.269531 -53.960938 46.125 -55.234375 C 44.976562 -56.515625 42.957031 -57.15625 40.0625 -57.15625 C 38.1875 -57.15625 36.144531 -56.796875 33.9375 -56.078125 C 31.726562 -55.359375 29.472656 -54.101562 27.171875 -52.3125 L 27.171875 -7.90625 C 27.171875 -4.59375 28.703125 -2.46875 31.765625 -1.53125 L 32.796875 -1.28125 L 32.796875 0 Z M 2.9375 0 "/></g></g><g style="fill:#268fcf;fill-opacity:1;"><g transform="translate(675.247907, 279.173959)"><path style="stroke:none" d="M 21.1875 1.90625 C 16.25 1.90625 12.097656 0.503906 8.734375 -2.296875 C 5.378906 -5.097656 3.703125 -9.140625 3.703125 -14.421875 C 3.703125 -18.421875 5.742188 -22.097656 9.828125 -25.453125 C 13.910156 -28.816406 20.332031 -31.347656 29.09375 -33.046875 C 30.457031 -33.296875 31.988281 -33.570312 33.6875 -33.875 C 35.382812 -34.175781 37.171875 -34.492188 39.046875 -34.828125 L 39.046875 -44.90625 C 39.046875 -50.695312 38.34375 -54.757812 36.9375 -57.09375 C 35.53125 -59.4375 33.34375 -60.609375 30.375 -60.609375 C 28.332031 -60.609375 26.710938 -59.945312 25.515625 -58.625 C 24.328125 -57.3125 23.5625 -55.035156 23.21875 -51.796875 L 22.96875 -50.40625 C 22.800781 -46.738281 21.90625 -44.054688 20.28125 -42.359375 C 18.664062 -40.660156 16.671875 -39.8125 14.296875 -39.8125 C 12.078125 -39.8125 10.242188 -40.488281 8.796875 -41.84375 C 7.359375 -43.207031 6.640625 -45.039062 6.640625 -47.34375 C 6.640625 -50.820312 7.847656 -53.753906 10.265625 -56.140625 C 12.691406 -58.523438 15.90625 -60.3125 19.90625 -61.5 C 23.90625 -62.6875 28.242188 -63.28125 32.921875 -63.28125 C 40.492188 -63.28125 46.34375 -61.429688 50.46875 -57.734375 C 54.59375 -54.035156 56.65625 -48.019531 56.65625 -39.6875 L 56.65625 -11.484375 C 56.65625 -7.648438 58.441406 -5.734375 62.015625 -5.734375 L 64.8125 -5.734375 L 65.96875 -4.71875 C 64.351562 -2.675781 62.585938 -1.101562 60.671875 0 C 58.753906 1.101562 56.050781 1.65625 52.5625 1.65625 C 48.820312 1.65625 45.867188 0.785156 43.703125 -0.953125 C 41.535156 -2.703125 40.109375 -5.019531 39.421875 -7.90625 C 36.867188 -5.1875 34.253906 -2.867188 31.578125 -0.953125 C 28.898438 0.953125 25.4375 1.90625 21.1875 1.90625 Z M 28.96875 -5.875 C 30.664062 -5.875 32.257812 -6.273438 33.75 -7.078125 C 35.238281 -7.890625 37.003906 -9.144531 39.046875 -10.84375 L 39.046875 -32.28125 C 38.191406 -32.113281 37.335938 -31.941406 36.484375 -31.765625 C 35.640625 -31.597656 34.664062 -31.429688 33.5625 -31.265625 C 29.644531 -30.242188 26.515625 -28.519531 24.171875 -26.09375 C 21.835938 -23.664062 20.671875 -20.410156 20.671875 -16.328125 C 20.671875 -12.835938 21.476562 -10.222656 23.09375 -8.484375 C 24.707031 -6.742188 26.664062 -5.875 28.96875 -5.875 Z M 28.96875 -5.875 "/></g></g><g style="fill:#268fcf;fill-opacity:1;"><g transform="translate(741.336291, 279.173959)"><path style="stroke:none" d="M 26.796875 1.90625 C 21.347656 1.90625 17.113281 0.546875 14.09375 -2.171875 C 11.070312 -4.890625 9.5625 -9.226562 9.5625 -15.1875 L 9.5625 -58.828125 L 0.765625 -58.828125 L 0.765625 -60.09375 L 3.828125 -60.609375 C 6.460938 -61.203125 8.738281 -62.050781 10.65625 -63.15625 C 12.570312 -64.257812 14.460938 -65.75 16.328125 -67.625 L 26.796875 -79.234375 L 28.078125 -79.234375 L 27.6875 -61.375 L 41.984375 -61.375 L 41.984375 -58.828125 L 27.5625 -58.828125 L 27.5625 -12.890625 C 27.5625 -9.910156 28.21875 -7.65625 29.53125 -6.125 C 30.851562 -4.59375 32.535156 -3.828125 34.578125 -3.828125 C 36.359375 -3.828125 37.929688 -4.269531 39.296875 -5.15625 C 40.660156 -6.050781 42.019531 -7.265625 43.375 -8.796875 L 44.65625 -7.53125 C 42.957031 -4.632812 40.617188 -2.335938 37.640625 -0.640625 C 34.660156 1.054688 31.046875 1.90625 26.796875 1.90625 Z M 26.796875 1.90625 "/></g></g><g style="fill:#068cab;fill-opacity:1;"><g transform="translate(787.407174, 279.173959)"><path style="stroke:none" d=""/></g></g><g style="fill:#ffffff;fill-opacity:1;"><g transform="translate(273.368265, 386.347484)"><path style="stroke:none" d="M 2.546875 0 L 2.546875 -1.28125 L 5.109375 -2.171875 C 7.992188 -3.109375 9.4375 -5.53125 9.4375 -9.4375 L 9.4375 -74.765625 C 9.4375 -76.472656 9.242188 -77.835938 8.859375 -78.859375 C 8.484375 -79.878906 7.488281 -80.726562 5.875 -81.40625 L 2.546875 -82.9375 L 2.546875 -84.21875 L 27.171875 -84.21875 L 50.78125 -22.453125 L 72.984375 -84.21875 L 98.125 -84.21875 L 98.125 -82.9375 L 96.078125 -82.171875 C 94.460938 -81.578125 93.359375 -80.75 92.765625 -79.6875 C 92.171875 -78.625 91.875 -77.238281 91.875 -75.53125 L 91.875 -8.796875 C 91.875 -7.097656 92.082031 -5.78125 92.5 -4.84375 C 92.925781 -3.90625 93.945312 -3.097656 95.5625 -2.421875 L 98.125 -1.28125 L 98.125 0 L 66.34375 0 L 66.34375 -1.28125 L 69.03125 -2.421875 C 70.644531 -3.097656 71.664062 -3.90625 72.09375 -4.84375 C 72.519531 -5.78125 72.734375 -7.097656 72.734375 -8.796875 L 72.734375 -37.515625 L 72.984375 -74 L 46.3125 0 L 39.9375 0 L 12.125 -73.109375 L 12.5 -41.34375 L 12.5 -9.1875 C 12.5 -7.3125 12.773438 -5.800781 13.328125 -4.65625 C 13.878906 -3.507812 14.96875 -2.679688 16.59375 -2.171875 L 19.390625 -1.28125 L 19.390625 0 Z M 2.546875 0 "/></g></g><g style="fill:#ffffff;fill-opacity:1;"><g transform="translate(371.735264, 386.347484)"><path style="stroke:none" d="M 21.1875 1.90625 C 16.25 1.90625 12.097656 0.503906 8.734375 -2.296875 C 5.378906 -5.097656 3.703125 -9.140625 3.703125 -14.421875 C 3.703125 -18.421875 5.742188 -22.097656 9.828125 -25.453125 C 13.910156 -28.816406 20.332031 -31.347656 29.09375 -33.046875 C 30.457031 -33.296875 31.988281 -33.570312 33.6875 -33.875 C 35.382812 -34.175781 37.171875 -34.492188 39.046875 -34.828125 L 39.046875 -44.90625 C 39.046875 -50.695312 38.34375 -54.757812 36.9375 -57.09375 C 35.53125 -59.4375 33.34375 -60.609375 30.375 -60.609375 C 28.332031 -60.609375 26.710938 -59.945312 25.515625 -58.625 C 24.328125 -57.3125 23.5625 -55.035156 23.21875 -51.796875 L 22.96875 -50.40625 C 22.800781 -46.738281 21.90625 -44.054688 20.28125 -42.359375 C 18.664062 -40.660156 16.671875 -39.8125 14.296875 -39.8125 C 12.078125 -39.8125 10.242188 -40.488281 8.796875 -41.84375 C 7.359375 -43.207031 6.640625 -45.039062 6.640625 -47.34375 C 6.640625 -50.820312 7.847656 -53.753906 10.265625 -56.140625 C 12.691406 -58.523438 15.90625 -60.3125 19.90625 -61.5 C 23.90625 -62.6875 28.242188 -63.28125 32.921875 -63.28125 C 40.492188 -63.28125 46.34375 -61.429688 50.46875 -57.734375 C 54.59375 -54.035156 56.65625 -48.019531 56.65625 -39.6875 L 56.65625 -11.484375 C 56.65625 -7.648438 58.441406 -5.734375 62.015625 -5.734375 L 64.8125 -5.734375 L 65.96875 -4.71875 C 64.351562 -2.675781 62.585938 -1.101562 60.671875 0 C 58.753906 1.101562 56.050781 1.65625 52.5625 1.65625 C 48.820312 1.65625 45.867188 0.785156 43.703125 -0.953125 C 41.535156 -2.703125 40.109375 -5.019531 39.421875 -7.90625 C 36.867188 -5.1875 34.253906 -2.867188 31.578125 -0.953125 C 28.898438 0.953125 25.4375 1.90625 21.1875 1.90625 Z M 28.96875 -5.875 C 30.664062 -5.875 32.257812 -6.273438 33.75 -7.078125 C 35.238281 -7.890625 37.003906 -9.144531 39.046875 -10.84375 L 39.046875 -32.28125 C 38.191406 -32.113281 37.335938 -31.941406 36.484375 -31.765625 C 35.640625 -31.597656 34.664062 -31.429688 33.5625 -31.265625 C 29.644531 -30.242188 26.515625 -28.519531 24.171875 -26.09375 C 21.835938 -23.664062 20.671875 -20.410156 20.671875 -16.328125 C 20.671875 -12.835938 21.476562 -10.222656 23.09375 -8.484375 C 24.707031 -6.742188 26.664062 -5.875 28.96875 -5.875 Z M 28.96875 -5.875 "/></g></g><g style="fill:#ffffff;fill-opacity:1;"><g transform="translate(437.823648, 386.347484)"><path style="stroke:none" d="M 24.625 1.90625 C 20.457031 1.90625 16.710938 1.414062 13.390625 0.4375 C 10.078125 -0.53125 7.015625 -1.738281 4.203125 -3.1875 L 4.34375 -18.375 L 5.609375 -18.375 L 9.953125 -10.71875 C 11.828125 -7.3125 13.890625 -4.78125 16.140625 -3.125 C 18.390625 -1.46875 21.257812 -0.640625 24.75 -0.640625 C 28.832031 -0.640625 32.128906 -1.550781 34.640625 -3.375 C 37.148438 -5.207031 38.40625 -7.65625 38.40625 -10.71875 C 38.40625 -13.519531 37.507812 -15.8125 35.71875 -17.59375 C 33.9375 -19.382812 30.625 -21.003906 25.78125 -22.453125 L 20.421875 -24.109375 C 15.222656 -25.640625 11.132812 -28.019531 8.15625 -31.25 C 5.1875 -34.488281 3.703125 -38.445312 3.703125 -43.125 C 3.703125 -48.738281 5.910156 -53.5 10.328125 -57.40625 C 14.753906 -61.320312 21.09375 -63.28125 29.34375 -63.28125 C 32.664062 -63.28125 35.789062 -62.921875 38.71875 -62.203125 C 41.65625 -61.484375 44.484375 -60.398438 47.203125 -58.953125 L 46.4375 -45.171875 L 45.171875 -45.171875 L 40.703125 -53.078125 C 39.085938 -55.890625 37.492188 -57.867188 35.921875 -59.015625 C 34.347656 -60.160156 31.988281 -60.734375 28.84375 -60.734375 C 25.945312 -60.734375 23.222656 -59.925781 20.671875 -58.3125 C 18.117188 -56.695312 16.84375 -54.398438 16.84375 -51.421875 C 16.84375 -48.523438 17.925781 -46.226562 20.09375 -44.53125 C 22.257812 -42.832031 25.472656 -41.257812 29.734375 -39.8125 L 35.46875 -38.15625 C 41.59375 -36.28125 45.972656 -33.703125 48.609375 -30.421875 C 51.242188 -27.148438 52.5625 -23.21875 52.5625 -18.625 C 52.5625 -12.414062 50.113281 -7.441406 45.21875 -3.703125 C 40.332031 0.0351562 33.46875 1.90625 24.625 1.90625 Z M 24.625 1.90625 "/></g></g><g style="fill:#ffffff;fill-opacity:1;"><g transform="translate(492.684629, 386.347484)"><path style="stroke:none" d="M 21.1875 1.90625 C 16.25 1.90625 12.097656 0.503906 8.734375 -2.296875 C 5.378906 -5.097656 3.703125 -9.140625 3.703125 -14.421875 C 3.703125 -18.421875 5.742188 -22.097656 9.828125 -25.453125 C 13.910156 -28.816406 20.332031 -31.347656 29.09375 -33.046875 C 30.457031 -33.296875 31.988281 -33.570312 33.6875 -33.875 C 35.382812 -34.175781 37.171875 -34.492188 39.046875 -34.828125 L 39.046875 -44.90625 C 39.046875 -50.695312 38.34375 -54.757812 36.9375 -57.09375 C 35.53125 -59.4375 33.34375 -60.609375 30.375 -60.609375 C 28.332031 -60.609375 26.710938 -59.945312 25.515625 -58.625 C 24.328125 -57.3125 23.5625 -55.035156 23.21875 -51.796875 L 22.96875 -50.40625 C 22.800781 -46.738281 21.90625 -44.054688 20.28125 -42.359375 C 18.664062 -40.660156 16.671875 -39.8125 14.296875 -39.8125 C 12.078125 -39.8125 10.242188 -40.488281 8.796875 -41.84375 C 7.359375 -43.207031 6.640625 -45.039062 6.640625 -47.34375 C 6.640625 -50.820312 7.847656 -53.753906 10.265625 -56.140625 C 12.691406 -58.523438 15.90625 -60.3125 19.90625 -61.5 C 23.90625 -62.6875 28.242188 -63.28125 32.921875 -63.28125 C 40.492188 -63.28125 46.34375 -61.429688 50.46875 -57.734375 C 54.59375 -54.035156 56.65625 -48.019531 56.65625 -39.6875 L 56.65625 -11.484375 C 56.65625 -7.648438 58.441406 -5.734375 62.015625 -5.734375 L 64.8125 -5.734375 L 65.96875 -4.71875 C 64.351562 -2.675781 62.585938 -1.101562 60.671875 0 C 58.753906 1.101562 56.050781 1.65625 52.5625 1.65625 C 48.820312 1.65625 45.867188 0.785156 43.703125 -0.953125 C 41.535156 -2.703125 40.109375 -5.019531 39.421875 -7.90625 C 36.867188 -5.1875 34.253906 -2.867188 31.578125 -0.953125 C 28.898438 0.953125 25.4375 1.90625 21.1875 1.90625 Z M 28.96875 -5.875 C 30.664062 -5.875 32.257812 -6.273438 33.75 -7.078125 C 35.238281 -7.890625 37.003906 -9.144531 39.046875 -10.84375 L 39.046875 -32.28125 C 38.191406 -32.113281 37.335938 -31.941406 36.484375 -31.765625 C 35.640625 -31.597656 34.664062 -31.429688 33.5625 -31.265625 C 29.644531 -30.242188 26.515625 -28.519531 24.171875 -26.09375 C 21.835938 -23.664062 20.671875 -20.410156 20.671875 -16.328125 C 20.671875 -12.835938 21.476562 -10.222656 23.09375 -8.484375 C 24.707031 -6.742188 26.664062 -5.875 28.96875 -5.875 Z M 28.96875 -5.875 "/></g></g><g style="fill:#ffffff;fill-opacity:1;"><g transform="translate(558.773013, 386.347484)"><path style="stroke:none" d=""/></g></g><g style="fill:#ffffff;fill-opacity:1;"><g transform="translate(586.586268, 386.347484)"><path style="stroke:none" d="M 2.8125 0 L 2.8125 -1.28125 L 5.484375 -2.296875 C 7.179688 -2.890625 8.285156 -3.695312 8.796875 -4.71875 C 9.304688 -5.738281 9.5625 -7.054688 9.5625 -8.671875 L 9.5625 -75.40625 C 9.5625 -77.101562 9.304688 -78.460938 8.796875 -79.484375 C 8.285156 -80.503906 7.179688 -81.316406 5.484375 -81.921875 L 2.8125 -82.9375 L 2.8125 -84.21875 L 34.578125 -84.21875 L 34.578125 -82.9375 L 31.765625 -81.78125 C 30.328125 -81.269531 29.351562 -80.503906 28.84375 -79.484375 C 28.332031 -78.460938 28.078125 -77.0625 28.078125 -75.28125 L 28.078125 -8.546875 C 28.078125 -6.847656 28.351562 -5.53125 28.90625 -4.59375 C 29.457031 -3.65625 30.539062 -2.890625 32.15625 -2.296875 L 34.578125 -1.28125 L 34.578125 0 Z M 49.890625 0 L 49.890625 -1.28125 L 51.546875 -1.78125 C 53.242188 -2.289062 54.132812 -3.140625 54.21875 -4.328125 C 54.3125 -5.523438 53.804688 -6.890625 52.703125 -8.421875 L 28.203125 -43.25 L 60.484375 -76.171875 C 61.671875 -77.359375 62.328125 -78.503906 62.453125 -79.609375 C 62.585938 -80.722656 61.757812 -81.578125 59.96875 -82.171875 L 57.796875 -82.9375 L 57.796875 -84.21875 L 76.421875 -84.21875 L 76.421875 -82.9375 L 73.109375 -81.921875 C 71.234375 -81.316406 69.742188 -80.585938 68.640625 -79.734375 C 67.535156 -78.890625 66.257812 -77.742188 64.8125 -76.296875 L 41.984375 -52.953125 L 71.96875 -9.1875 C 73.238281 -7.3125 74.445312 -5.78125 75.59375 -4.59375 C 76.75 -3.40625 78.390625 -2.46875 80.515625 -1.78125 L 82.296875 -1.28125 L 82.296875 0 Z M 49.890625 0 "/></g></g><g style="fill:#ffffff;fill-opacity:1;"><g transform="translate(670.026052, 386.347484)"><path style="stroke:none" d="M 17.859375 -69.921875 C 14.972656 -69.921875 12.53125 -70.832031 10.53125 -72.65625 C 8.53125 -74.488281 7.53125 -76.8125 7.53125 -79.625 C 7.53125 -82.507812 8.53125 -84.84375 10.53125 -86.625 C 12.53125 -88.414062 14.972656 -89.3125 17.859375 -89.3125 C 20.753906 -89.3125 23.179688 -88.414062 25.140625 -86.625 C 27.097656 -84.84375 28.078125 -82.507812 28.078125 -79.625 C 28.078125 -76.8125 27.097656 -74.488281 25.140625 -72.65625 C 23.179688 -70.832031 20.753906 -69.921875 17.859375 -69.921875 Z M 2.8125 0 L 2.8125 -1.28125 L 4.59375 -1.78125 C 6.289062 -2.289062 7.457031 -3.054688 8.09375 -4.078125 C 8.738281 -5.097656 9.0625 -6.460938 9.0625 -8.171875 L 9.0625 -48.109375 C 9.0625 -49.890625 8.738281 -51.226562 8.09375 -52.125 C 7.457031 -53.019531 6.289062 -53.632812 4.59375 -53.96875 L 2.8125 -54.359375 L 2.8125 -55.625 L 26.15625 -63.15625 L 27.4375 -61.890625 L 27.046875 -43.765625 L 27.046875 -8.03125 C 27.046875 -6.332031 27.363281 -4.972656 28 -3.953125 C 28.644531 -2.929688 29.773438 -2.164062 31.390625 -1.65625 L 32.65625 -1.28125 L 32.65625 0 Z M 2.8125 0 "/></g></g><g style="fill:#ffffff;fill-opacity:1;"><g transform="translate(705.749457, 386.347484)"><path style="stroke:none" d="M 2.546875 0 L 2.546875 -1.28125 L 4.34375 -1.78125 C 7.3125 -2.632812 8.796875 -4.71875 8.796875 -8.03125 L 8.796875 -47.96875 C 8.796875 -49.84375 8.5 -51.226562 7.90625 -52.125 C 7.3125 -53.019531 6.164062 -53.632812 4.46875 -53.96875 L 2.546875 -54.484375 L 2.546875 -55.765625 L 24.375 -63.15625 L 25.640625 -61.890625 L 26.671875 -54.234375 C 29.648438 -56.867188 33.007812 -59.035156 36.75 -60.734375 C 40.488281 -62.429688 44.1875 -63.28125 47.84375 -63.28125 C 53.457031 -63.28125 57.773438 -61.75 60.796875 -58.6875 C 63.816406 -55.625 65.328125 -50.945312 65.328125 -44.65625 L 65.328125 -7.90625 C 65.328125 -4.59375 66.941406 -2.507812 70.171875 -1.65625 L 71.328125 -1.28125 L 71.328125 0 L 41.21875 0 L 41.21875 -1.28125 L 42.875 -1.78125 C 45.851562 -2.71875 47.34375 -4.800781 47.34375 -8.03125 L 47.34375 -48.734375 C 47.34375 -54.179688 44.617188 -56.90625 39.171875 -56.90625 C 35.429688 -56.90625 31.347656 -55.035156 26.921875 -51.296875 L 26.921875 -7.90625 C 26.921875 -4.59375 28.410156 -2.507812 31.390625 -1.65625 L 32.53125 -1.28125 L 32.53125 0 Z M 2.546875 0 "/></g></g><g style="fill:#ffffff;fill-opacity:1;"><g transform="translate(779.492898, 386.347484)"><path style="stroke:none" d="M 17.859375 -69.921875 C 14.972656 -69.921875 12.53125 -70.832031 10.53125 -72.65625 C 8.53125 -74.488281 7.53125 -76.8125 7.53125 -79.625 C 7.53125 -82.507812 8.53125 -84.84375 10.53125 -86.625 C 12.53125 -88.414062 14.972656 -89.3125 17.859375 -89.3125 C 20.753906 -89.3125 23.179688 -88.414062 25.140625 -86.625 C 27.097656 -84.84375 28.078125 -82.507812 28.078125 -79.625 C 28.078125 -76.8125 27.097656 -74.488281 25.140625 -72.65625 C 23.179688 -70.832031 20.753906 -69.921875 17.859375 -69.921875 Z M 2.8125 0 L 2.8125 -1.28125 L 4.59375 -1.78125 C 6.289062 -2.289062 7.457031 -3.054688 8.09375 -4.078125 C 8.738281 -5.097656 9.0625 -6.460938 9.0625 -8.171875 L 9.0625 -48.109375 C 9.0625 -49.890625 8.738281 -51.226562 8.09375 -52.125 C 7.457031 -53.019531 6.289062 -53.632812 4.59375 -53.96875 L 2.8125 -54.359375 L 2.8125 -55.625 L 26.15625 -63.15625 L 27.4375 -61.890625 L 27.046875 -43.765625 L 27.046875 -8.03125 C 27.046875 -6.332031 27.363281 -4.972656 28 -3.953125 C 28.644531 -2.929688 29.773438 -2.164062 31.390625 -1.65625 L 32.65625 -1.28125 L 32.65625 0 Z M 2.8125 0 "/></g></g></g></svg>